<svg xmlns="http://www.w3.org/2000/svg" viewBox="0 0 252.28 457.76"><defs><style>.cls-1{isolation:isolate;}.cls-2{fill:#008574;}.cls-3{fill:#7fe6c1;}.cls-4{fill:#3bdd95;}.cls-5{fill:#c2c3ca;opacity:0.6;mix-blend-mode:multiply;}.cls-6{fill:#d8d9dd;}</style></defs><title>chocolate-pack1</title><g class="cls-1"><g id="圖層_2" data-name="圖層 2"><g id="圖層_1-2" data-name="圖層 1"><path class="cls-2" d="M238.26,0H0V272.54L232.27,21.62Q235.34,10.78,238.26,0Z"/><path class="cls-3" d="M219.51,261.44c-43.37-55.54-13-148.87,12.76-239.82L0,272.54V457.76H202.55C179.64,398.09,252.85,329.77,219.51,261.44Z"/><path class="cls-4" d="M219.51,261.44c-44.62-57.14-11.16-154.27,15-247.66H0V444H198.92C190.2,387.68,250.31,324.56,219.51,261.44Z"/><path class="cls-5" d="M238.26,0H0V106.47C66.47,53.06,147.52,17.82,236,8.09Q237.17,4,238.26,0Z"/><path class="cls-5" d="M245.45,0h-14q-2.92,10.77-6,21.62c-25.75,91-56.13,184.28-12.76,239.82,33.34,68.32-39.87,136.64-17,196.31h49.73Z"/><path class="cls-6" d="M252.28,0h-14q-2.92,10.77-6,21.62c-25.75,91-56.13,184.28-12.76,239.82,33.34,68.32-39.87,136.64-17,196.31h49.73Z"/></g></g></g></svg>