<svg xmlns="http://www.w3.org/2000/svg" viewBox="0 0 471.38 481.66"><defs><style>.cls-1{isolation:isolate;}.cls-2{fill:#008574;}.cls-3{fill:#7fe6c1;}.cls-4{fill:#3bdd95;}.cls-5{fill:#c2c3ca;opacity:0.6;mix-blend-mode:multiply;}.cls-6{fill:#d8d9dd;}</style></defs><title>Chocolate-pack</title><g class="cls-1"><g id="圖層_2" data-name="圖層 2"><g id="圖層_1-2" data-name="圖層 1"><path class="cls-2" d="M47.64,12V469.71L451.36,33.58q3.07-10.85,6-21.62Z"/><path class="cls-3" d="M438.6,273.4c-43.37-55.54-13-148.87,12.76-239.82L47.64,469.71h374C398.73,410,471.94,341.72,438.6,273.4Z"/><path class="cls-4" d="M438.6,273.4c-44.62-57.14-11.16-154.27,15-247.66H60.4V455.93H418C409.29,399.63,469.4,336.52,438.6,273.4Z"/><polygon class="cls-2" points="11.05 14.32 0 27.58 0 27.7 11.05 40.96 0 54.2 0 54.33 11.05 67.58 0 80.84 0 80.96 11.05 94.21 0 107.47 0 107.59 11.05 120.84 0 134.09 0 134.22 11.05 147.47 0 160.73 0 160.85 11.05 174.1 0 187.35 0 187.48 11.05 200.73 0 213.99 0 214.11 11.05 227.36 0 240.62 0 240.74 11.05 253.99 0 267.25 0 267.37 11.05 280.62 0 293.87 0 294 11.05 307.25 0 320.5 0 320.63 11.05 333.88 0 347.13 0 347.26 11.05 360.51 0 373.76 0 373.89 11.05 387.14 0 400.39 0 400.52 11.05 413.77 0 427.02 0 427.15 11.05 440.4 0 453.65 0 453.78 11.05 467.03 0 480.28 0 480.8 27.46 481.66 27.46 0 0 0.87 0 1.07 11.05 14.32"/><polygon class="cls-4" points="47.64 469.41 47.64 12.26 27.46 0 27.46 481.66 47.64 469.41"/><path class="cls-5" d="M47.64,12V414.09C81.41,205.42,247.81,42.84,455.14,20Q456.26,16,457.36,12Z"/><path class="cls-5" d="M464.54,12h-14q-2.92,10.77-6,21.62c-25.75,91-56.13,184.28-12.76,239.82,33.34,68.32-39.87,136.64-17,196.31h49.73Z"/><path class="cls-6" d="M471.38,12h-14q-2.92,10.77-6,21.62c-25.75,91-56.13,184.28-12.76,239.82,33.34,68.32-39.87,136.64-17,196.31h49.73Z"/></g></g></g></svg>