<svg xmlns="http://www.w3.org/2000/svg" viewBox="0 0 1049.33 449.3"><defs><style>.cls-1{fill:#692701;}.cls-2{fill:#a56139;}.cls-3{fill:#8b3601;}.cls-4{fill:#fff;}</style></defs><title>Chocolate-group</title><g id="圖層_2" data-name="圖層 2"><g id="圖層_1-2" data-name="圖層 1"><polygon class="cls-1" points="615.96 166.25 733.17 166.25 749.52 149.9 599.62 149.9 599.62 299.81 615.96 283.46 615.96 166.25"/><polygon class="cls-2" points="749.52 149.9 733.17 166.25 733.17 166.25 733.17 283.46 615.96 283.46 615.96 283.46 599.62 299.81 749.52 299.81 749.52 149.9"/><polygon class="cls-1" points="615.96 315.74 733.17 315.74 749.52 299.39 599.62 299.39 599.62 449.3 615.96 432.95 615.96 315.74"/><polygon class="cls-2" points="749.52 299.39 733.17 315.74 733.17 315.74 733.17 432.95 615.96 432.95 615.96 432.95 599.62 449.3 749.52 449.3 749.52 299.39"/><polygon class="cls-1" points="466.06 166.25 583.27 166.25 599.62 149.9 449.71 149.9 449.71 299.81 466.06 283.46 466.06 166.25"/><polygon class="cls-2" points="583.27 166.25 583.27 283.46 466.06 283.46 466.06 283.46 449.71 299.81 599.62 299.81 599.62 149.9 583.27 166.25"/><polygon class="cls-1" points="316.16 315.74 433.37 315.74 449.71 299.39 299.81 299.39 299.81 449.3 316.16 432.95 316.16 315.74"/><polygon class="cls-2" points="449.71 299.39 433.37 315.74 433.37 315.74 433.37 432.95 316.16 432.95 316.16 432.95 299.81 449.3 449.71 449.3 449.71 299.39"/><polygon class="cls-1" points="466.06 315.74 583.27 315.74 599.62 299.39 449.71 299.39 449.71 449.3 466.06 432.95 466.06 315.74"/><polygon class="cls-2" points="599.62 299.39 583.27 315.74 583.27 315.74 583.27 432.95 466.06 432.95 466.06 432.95 449.71 449.3 599.62 449.3 599.62 299.39"/><polygon class="cls-1" points="915.77 315.74 1032.98 315.74 1049.33 299.39 899.42 299.39 899.42 449.3 915.77 432.95 915.77 315.74"/><polygon class="cls-2" points="1049.33 299.39 1032.98 315.74 1032.98 315.74 1032.98 432.95 915.77 432.95 915.77 432.95 899.42 449.3 1049.33 449.3 1049.33 299.39"/><polygon class="cls-1" points="765.87 315.74 883.08 315.74 899.42 299.39 749.52 299.39 749.52 449.3 765.87 432.95 765.87 315.74"/><polygon class="cls-2" points="899.42 299.39 883.08 315.74 883.08 315.74 883.08 432.95 765.87 432.95 765.87 432.95 749.52 449.3 899.42 449.3 899.42 299.39"/><polygon class="cls-1" points="166.25 315.74 283.46 315.74 299.81 299.39 149.91 299.39 149.91 449.3 166.25 432.95 166.25 315.74"/><polygon class="cls-2" points="283.46 315.74 283.46 432.95 166.25 432.95 166.25 432.95 149.91 449.3 299.81 449.3 299.81 299.39 283.46 315.74"/><polygon class="cls-1" points="16.35 166.25 133.56 166.25 133.56 166.25 149.91 149.9 0 149.9 0 299.81 16.35 283.46 16.35 166.25"/><polygon class="cls-2" points="133.56 166.25 133.56 283.46 16.35 283.46 16.35 283.46 0 299.81 149.91 299.81 149.91 149.9 133.56 166.25"/><polygon class="cls-3" points="16.35 166.25 16.35 283.46 16.35 283.46 133.56 283.46 133.56 166.25 133.56 166.25 16.35 166.25"/><polygon class="cls-1" points="16.35 315.74 133.56 315.74 133.56 315.74 149.9 299.39 0 299.39 0 449.3 16.35 432.95 16.35 315.74"/><polygon class="cls-2" points="133.56 315.74 133.56 432.95 16.35 432.95 16.35 432.95 0 449.3 149.9 449.3 149.9 299.39 133.56 315.74"/><polygon class="cls-3" points="16.35 315.74 16.35 432.95 16.35 432.95 133.56 432.95 133.56 315.74 133.56 315.74 16.35 315.74"/><polygon class="cls-1" points="16.35 16.35 133.56 16.35 133.56 16.35 149.91 0 0 0 0 149.9 16.35 133.56 16.35 16.35"/><polygon class="cls-2" points="133.56 16.35 133.56 133.56 16.35 133.56 16.35 133.56 0 149.9 149.91 149.9 149.91 0 133.56 16.35"/><polygon class="cls-3" points="16.35 16.35 16.35 133.56 16.35 133.56 133.56 133.56 133.56 16.35 133.56 16.35 16.35 16.35"/><polygon class="cls-1" points="466.06 16.35 583.27 16.35 583.27 16.35 599.62 0 449.71 0 449.71 149.9 466.06 133.56 466.06 16.35"/><polygon class="cls-2" points="583.27 16.35 583.27 133.56 466.06 133.56 466.06 133.56 449.71 149.9 599.62 149.9 599.62 0 583.27 16.35"/><polygon class="cls-3" points="466.06 165.84 466.06 283.86 466.06 283.86 583.27 283.86 583.27 165.84 583.27 165.84 466.06 165.84"/><polygon class="cls-3" points="466.06 15.94 466.06 133.96 466.06 133.96 583.27 133.96 583.27 15.94 583.27 15.94 466.06 15.94"/><polygon class="cls-1" points="765.87 166.25 883.08 166.25 883.08 166.25 899.42 149.9 749.52 149.9 749.52 299.81 765.87 283.46 765.87 166.25"/><polygon class="cls-2" points="883.08 166.25 883.08 283.46 765.87 283.46 765.87 283.46 749.52 299.81 899.42 299.81 899.42 149.9 883.08 166.25"/><polygon class="cls-3" points="765.87 166.25 765.87 283.46 765.87 283.46 883.08 283.46 883.08 166.25 883.08 166.25 765.87 166.25"/><polygon class="cls-3" points="615.96 166.25 615.96 283.46 615.96 283.46 733.17 283.46 733.17 166.25 733.17 166.25 615.96 166.25"/><polygon class="cls-1" points="182.52 32.72 417.09 32.72 449.81 0 149.81 0 149.81 300 182.52 267.29 182.52 32.72"/><polygon class="cls-2" points="417.09 32.72 417.09 267.29 182.52 267.29 182.52 267.29 149.81 300 449.81 300 449.81 0 417.09 32.72"/><polygon class="cls-4" points="163.56 14.29 163.56 286.54 163.56 286.54 435.82 286.54 435.82 14.29 435.82 14.29 163.56 14.29"/></g></g></svg>