<?xml version="1.0" encoding="iso-8859-1"?>
<!-- Generator: Adobe Illustrator 21.1.0, SVG Export Plug-In . SVG Version: 6.00 Build 0)  -->
<svg version="1.1" id="&#x5716;&#x5C64;_1" xmlns="http://www.w3.org/2000/svg" xmlns:xlink="http://www.w3.org/1999/xlink" x="0px"
	 y="0px" viewBox="0 0 215.385 380.128" style="enable-background:new 0 0 215.385 380.128;" xml:space="preserve">
<g>
	<path style="fill:#F1C24E;" d="M18.978,54.533c-0.621-0.412-1.249-0.827-1.948-1.086c-0.699-0.259-1.485-0.351-2.189-0.106
		c-0.704,0.245-1.298,0.876-1.36,1.618c-0.073,0.864,0.588,1.669,1.396,1.98c-0.489-0.259-1.035-0.527-1.573-0.396
		c-0.734,0.178-1.113,1.076-0.941,1.811c0.172,0.735,0.747,1.31,1.365,1.744c0.691,0.485,1.547,0.857,2.367,0.655
		c0.545-0.135,0.996-0.504,1.427-0.862"/>
</g>
<g>
	<circle style="fill:#EFD876;" cx="22.32" cy="60.348" r="6.884"/>
</g>
<g>
	<circle style="fill:#DCADB5;" cx="64.031" cy="72.091" r="46.165"/>
</g>
<g>
	<g>
		<path style="fill:#737374;" d="M62.036,11.397c-2.482,0.083-5.921,0.657-6.272,3.741c-0.285,2.503,1.859,4.235,4.153,4.454
			c5.799,0.553,12.23-6.888,8.416-12.212c-3.309-4.618-13.5-4.106-16.901,0.106c-5.178,6.414-2.725,17.576,0.911,24.011
			c0.95,1.681,3.542,0.171,2.59-1.514c-2.988-5.289-4.202-11.576-2.491-17.512c1.025-3.555,3.863-5.158,7.561-5.09
			c1.312,0.024,3.827-0.02,4.825,0.827c1.899,2.745,1.799,4.856-0.302,6.333c-0.829,1.624-1.659,1.576-2.49-0.143
			C63.961,14.332,63.97,11.332,62.036,11.397L62.036,11.397z"/>
	</g>
</g>
<g>
	<path style="fill:#FFFFFF;" d="M79.399,70.603l-2.394-1.074l3.463-1.995c3.239-1.865,4.724-6.14,3.3-9.498l0,0
		c-1.424-3.359-5.239-4.58-8.477-2.715l-13.249,7.632c-1.74,1.003-2.973,2.701-3.522,4.579c-0.253,0.375-0.48,0.777-0.672,1.206l0,0
		c-0.524,1.169-0.739,2.393-0.683,3.56c-1.977,2.157-2.692,5.415-1.557,8.093l5.825,13.74c1.424,3.359,5.239,4.58,8.477,2.715l0,0
		c3.239-1.865,4.724-6.14,3.3-9.498l-2.051-4.839l2.416,1.084c3.154,1.415,7.046-0.35,8.648-3.922l0,0
		C83.824,76.098,82.554,72.018,79.399,70.603z"/>
</g>
<g>
	<g>
		<path style="fill:#040000;" d="M39.868,47.419c3.861,0,3.867-6,0-6C36.007,41.419,36.001,47.419,39.868,47.419L39.868,47.419z"/>
	</g>
</g>
<g>
	<g>
		<path style="fill:#FEFAE9;" d="M204.356,316.97h-1.748l1.561-2.156c1.46-2.016,1.197-5.018-0.583-6.671l0,0
			c-1.781-1.653-4.432-1.356-5.892,0.661l-5.972,8.248c-0.784,1.084-1.071,2.452-0.892,3.742c-0.052,0.297-0.08,0.603-0.08,0.916
			l0,0c0,0.854,0.203,1.656,0.555,2.349c-0.614,1.85-0.16,4.025,1.259,5.342l7.284,6.762c1.781,1.653,4.432,1.356,5.892-0.661v0
			c1.46-2.016,1.197-5.018-0.583-6.671l-2.565-2.382h1.764c2.302,0,4.186-2.133,4.186-4.74l0,0
			C208.543,319.103,206.659,316.97,204.356,316.97z"/>
	</g>
	<g>
		<path style="fill:#FEFAE9;" d="M92.588,324.078l1.716,0.332l-1.942,1.82c-1.816,1.703-2.128,4.7-0.693,6.661l0,0
			c1.435,1.961,4.094,2.172,5.91,0.469l7.429-6.965c0.976-0.915,1.517-2.204,1.586-3.505c0.107-0.282,0.193-0.577,0.252-0.885v0
			c0.162-0.838,0.115-1.664-0.099-2.412c0.954-1.7,0.921-3.921-0.223-5.484l-5.869-8.022c-1.435-1.961-4.094-2.172-5.91-0.469h0
			c-1.816,1.703-2.128,4.7-0.693,6.661l2.067,2.825l-1.732-0.335c-2.261-0.437-4.515,1.3-5.01,3.86l0,0
			C88.882,321.189,90.327,323.641,92.588,324.078z"/>
	</g>
	<g>
		<circle style="fill:#DCADB5;" cx="149.11" cy="327.894" r="43.155"/>
	</g>
	<g>
		<circle style="fill:#EFD876;" cx="147.218" cy="325.244" r="6.435"/>
	</g>
	<g>
		<path style="fill:#F1C24E;" d="M144.271,322.45c-0.692-0.083-1.391-0.166-2.083-0.089c-0.692,0.077-1.388,0.33-1.872,0.83
			c-0.485,0.5-0.716,1.276-0.457,1.922c0.302,0.752,1.191,1.147,1.998,1.068c-0.517-0.011-1.086-0.006-1.48,0.329
			c-0.538,0.457-0.478,1.366-0.026,1.908s1.174,0.781,1.872,0.883c0.781,0.115,1.652,0.067,2.252-0.447
			c0.398-0.341,0.62-0.839,0.83-1.319"/>
	</g>
	<g>
		<g>
			<path style="fill:#737374;" d="M163.91,272.219c-2.367-0.777-5.891-1.196-6.929,1.816c-0.766,2.223,0.869,4.261,2.834,5.051
				c5.015,2.017,13.093-2.585,10.977-8.547c-1.881-5.3-11.41-7.997-15.747-4.51c-5.869,4.719-7.255,14.084-6.079,21.005
				c0.323,1.899,3.214,1.094,2.893-0.798c-0.957-5.635,0.106-13.001,4.388-17.21c1.994-1.96,7.817-1.99,9.912,0.434
				c0.522,1.439,1.044,2.878,1.567,4.317c-0.62,1.062-1.479,1.786-2.576,2.173c-0.794,0.46-1.661,0.672-2.601,0.636
				c-2.922-0.241-2.734-0.732,0.564-1.474C164.951,275.715,165.739,272.819,163.91,272.219L163.91,272.219z"/>
		</g>
	</g>
	<g>
		<g>
			<path style="fill:#040000;" d="M164.379,313.354c3.861,0,3.867-6,0-6C160.518,307.354,160.511,313.354,164.379,313.354
				L164.379,313.354z"/>
		</g>
	</g>
	<g>
		<g>
			<path style="fill:#040000;" d="M136.366,309.569c3.861,0,3.867-6,0-6C132.505,303.569,132.499,309.569,136.366,309.569
				L136.366,309.569z"/>
		</g>
	</g>
</g>
<g>
	<g>
		
			<ellipse transform="matrix(0.9896 -0.1442 0.1442 0.9896 -22.4819 12.1732)" style="fill:#F1C24E;" cx="72.745" cy="161.194" rx="2.271" ry="13.249"/>
	</g>
	<g>
		
			<ellipse transform="matrix(0.3699 -0.9291 0.9291 0.3699 -101.9796 177.844)" style="fill:#F1C24E;" cx="80.125" cy="164.106" rx="10.237" ry="2.271"/>
	</g>
	<g>
		<ellipse style="fill:#F1C24E;" cx="77.097" cy="164.551" rx="2.271" ry="8.278"/>
	</g>
	<g>
		<path style="fill:#FFFFFF;" d="M134.698,215.678l-1.732-0.233l1.835-1.928c1.716-1.803,1.857-4.814,0.313-6.69v0
			c-1.544-1.876-4.211-1.935-5.927-0.132l-7.02,7.377c-0.922,0.969-1.389,2.287-1.384,3.59c-0.091,0.287-0.16,0.587-0.201,0.897v0
			c-0.114,0.846-0.02,1.668,0.237,2.403c-0.855,1.751-0.696,3.967,0.535,5.463l6.316,7.674c1.544,1.876,4.211,1.935,5.927,0.132v0
			c1.716-1.803,1.857-4.814,0.313-6.69l-2.225-2.703l1.748,0.235c2.282,0.307,4.434-1.555,4.782-4.139v0
			C138.562,218.351,136.98,215.985,134.698,215.678z"/>
	</g>
	<g>
		<path style="fill:#FFFFFF;" d="M24.202,207.971l1.68,0.482l-2.095,1.642c-1.959,1.536-2.535,4.494-1.279,6.574l0,0
			c1.256,2.08,3.886,2.525,5.845,0.99l8.015-6.282c1.053-0.825,1.705-2.061,1.889-3.351c0.132-0.271,0.243-0.558,0.329-0.859l0,0
			c0.235-0.821,0.261-1.647,0.114-2.412c1.1-1.609,1.264-3.824,0.263-5.483l-5.137-8.509c-1.256-2.08-3.886-2.525-5.845-0.99h0
			c-1.959,1.536-2.535,4.494-1.279,6.574l1.809,2.997l-1.695-0.486c-2.213-0.635-4.612,0.896-5.331,3.402h0
			C20.766,204.766,21.989,207.336,24.202,207.971z"/>
	</g>
	<g>
		<circle style="fill:#DCADB5;" cx="78.045" cy="216.841" r="43.155"/>
	</g>
	<g>
		<circle style="fill:#EFD876;" cx="82.966" cy="216.463" r="6.435"/>
	</g>
	<g>
		<path style="fill:#F1C24E;" d="M84.159,219.889c0.558,0.417,1.123,0.837,1.761,1.116s1.367,0.406,2.037,0.214
			c0.67-0.192,1.257-0.749,1.354-1.439c0.113-0.802-0.461-1.589-1.199-1.922c0.443,0.268,0.938,0.546,1.447,0.452
			c0.694-0.128,1.095-0.946,0.973-1.641c-0.122-0.695-0.629-1.262-1.183-1.699c-0.62-0.489-1.399-0.881-2.175-0.735
			c-0.515,0.097-0.956,0.418-1.377,0.73"/>
	</g>
	<g>
		<path style="fill:#DD5957;" d="M74.521,173.616l-4.915,3.88c-1.338,1.056-3.317,0.268-3.562-1.418l-0.903-6.196
			c-0.246-1.686,1.426-3.006,3.009-2.376l5.818,2.316C75.551,170.452,75.858,172.56,74.521,173.616z"/>
	</g>
	<g>
		<path style="fill:#DD5957;" d="M78.308,169.499l4.53-2.923c1.432-0.924,3.327,0.049,3.411,1.751l0.266,5.385
			c0.084,1.702-1.706,2.857-3.222,2.078l-4.796-2.462C76.981,172.551,76.876,170.423,78.308,169.499z"/>
	</g>
	<g>
		<path style="fill:#DD5957;" d="M76.909,167.63L76.909,167.63c-2.29,0-4.164,1.874-4.164,4.164v0c0,2.29,1.874,4.164,4.164,4.164h0
			c2.29,0,4.164-1.874,4.164-4.164v0C81.073,169.504,79.199,167.63,76.909,167.63z"/>
	</g>
	<g>
		<g>
			<path style="fill:#040000;" d="M65.3,199.273c3.861,0,3.867-6,0-6C61.439,193.273,61.433,199.273,65.3,199.273L65.3,199.273z"/>
		</g>
	</g>
	<g>
		<g>
			<path style="fill:#040000;" d="M97.098,203.816c3.861,0,3.867-6,0-6C93.238,197.816,93.231,203.816,97.098,203.816
				L97.098,203.816z"/>
		</g>
	</g>
</g>
</svg>
