<?xml version="1.0" encoding="iso-8859-1"?>
<!-- Generator: Adobe Illustrator 21.1.0, SVG Export Plug-In . SVG Version: 6.00 Build 0)  -->
<svg version="1.1" id="&#x5716;&#x5C64;_1" xmlns="http://www.w3.org/2000/svg" xmlns:xlink="http://www.w3.org/1999/xlink" x="0px"
	 y="0px" viewBox="0 0 237.821 226.923" style="enable-background:new 0 0 237.821 226.923;" xml:space="preserve">
<g>
	<g>
		<g>
			<g>
				<ellipse style="fill:#EFCD75;" cx="69.801" cy="15.785" rx="8.907" ry="10.698"/>
			</g>
			<g>
				<path style="fill:#040000;" d="M64.999,15.196c0.249-1.675,0.978-3.047,2.165-4.094c0.932-0.822-0.38-2.278-1.303-1.464
					c-1.402,1.237-2.346,3.032-2.639,5.008C63.028,15.949,64.804,16.51,64.999,15.196L64.999,15.196z"/>
			</g>
		</g>
		<g>
			<g>
				<ellipse style="fill:#EED774;" cx="85.527" cy="17.096" rx="8.907" ry="10.698"/>
			</g>
			<g>
				<path style="fill:#737374;" d="M80.725,16.507c0.249-1.675,0.978-3.047,2.165-4.094c0.932-0.822-0.38-2.278-1.303-1.464
					c-1.402,1.237-2.346,3.032-2.639,5.008C78.755,17.26,80.53,17.82,80.725,16.507L80.725,16.507z"/>
			</g>
		</g>
		<g>
			<g>
				<ellipse style="fill:#EFCD75;" cx="102.564" cy="14.475" rx="8.907" ry="10.698"/>
			</g>
			<g>
				<path style="fill:#737374;" d="M97.762,13.886c0.249-1.675,0.978-3.047,2.165-4.094c0.932-0.822-0.38-2.278-1.303-1.464
					c-1.402,1.237-2.346,3.032-2.639,5.008C95.791,14.639,97.567,15.199,97.762,13.886L97.762,13.886z"/>
			</g>
		</g>
		<g>
			<g>
				<ellipse style="fill:#EED774;" cx="118.291" cy="11.854" rx="8.907" ry="10.698"/>
			</g>
			<g>
				<path style="fill:#737374;" d="M113.488,11.265c0.249-1.675,0.978-3.047,2.165-4.094c0.932-0.822-0.38-2.278-1.303-1.464
					c-1.402,1.237-2.346,3.032-2.639,5.008C111.518,12.018,113.293,12.578,113.488,11.265L113.488,11.265z"/>
			</g>
		</g>
		<g>
			<g>
				<ellipse style="fill:#EFCD75;" cx="132.706" cy="17.096" rx="8.907" ry="10.698"/>
			</g>
			<g>
				<path style="fill:#737374;" d="M127.904,16.507c0.249-1.675,0.978-3.047,2.165-4.094c0.932-0.822-0.38-2.278-1.303-1.464
					c-1.402,1.237-2.346,3.032-2.639,5.008C125.934,17.26,127.709,17.82,127.904,16.507L127.904,16.507z"/>
			</g>
		</g>
		<g>
			<g>
				<ellipse style="fill:#EED774;" cx="151.054" cy="11.854" rx="8.907" ry="10.698"/>
			</g>
			<g>
				<path style="fill:#737374;" d="M146.252,11.265c0.249-1.675,0.978-3.047,2.165-4.094c0.932-0.822-0.38-2.278-1.303-1.464
					c-1.402,1.237-2.346,3.032-2.639,5.008C144.281,12.018,146.057,12.578,146.252,11.265L146.252,11.265z"/>
			</g>
		</g>
		<g>
			<g>
				<ellipse style="fill:#EFCD75;" cx="162.849" cy="17.096" rx="8.907" ry="10.698"/>
			</g>
			<g>
				<path style="fill:#737374;" d="M158.046,16.507c0.249-1.675,0.978-3.047,2.165-4.094c0.932-0.822-0.38-2.278-1.303-1.464
					c-1.402,1.237-2.346,3.032-2.639,5.008C156.076,17.26,157.851,17.82,158.046,16.507L158.046,16.507z"/>
			</g>
		</g>
		<g>
			<g>
				
					<ellipse transform="matrix(0.3797 -0.9251 0.9251 0.3797 93.2659 168.6427)" style="fill:#EED774;" cx="172.387" cy="14.775" rx="11.721" ry="9.091"/>
			</g>
			<g>
				<path style="fill:#737374;" d="M168.098,12.317c0.932-1.601,2.19-2.709,3.748-3.311c1.222-0.472,0.589-2.457-0.621-1.989
					c-1.839,0.71-3.476,2.165-4.575,4.053C165.924,12.316,167.367,13.572,168.098,12.317L168.098,12.317z"/>
			</g>
		</g>
		<g>
			<g>
				
					<ellipse transform="matrix(0.8816 -0.4721 0.4721 0.8816 0.0278 32.2193)" style="fill:#EED774;" cx="64.225" cy="16.054" rx="9.091" ry="11.721"/>
			</g>
			<g>
				<path style="fill:#737374;" d="M59.599,17.799c-0.642-1.737-0.696-3.414-0.169-4.998c0.413-1.243-1.52-2.017-1.93-0.786
					c-0.622,1.871-0.542,4.059,0.216,6.109C58.216,19.476,60.103,19.162,59.599,17.799L59.599,17.799z"/>
			</g>
		</g>
		<g>
			<path style="fill:#8BC7C4;" d="M179.886,184.25c-2.736,5.183,9.174,17.037,9.174,17.037
				c-19.658,5.242-140.227,6.553-140.227,6.553c-1.311-5.242,6.553-17.037,6.553-17.037c-20.968-49.8,2.621-148.09,2.621-148.09
				c-5.242-2.621-9.174-23.59-9.174-23.59s125.811-7.863,140.227,2.621c0,0-6.553,22.279-14.416,23.59
				C174.644,45.334,204.786,137.071,179.886,184.25z"/>
		</g>
		<g>
			<path style="fill:#A2D5D0;" d="M61.938,37.47c0,0,87.805-6.553,107.463,2.621"/>
			<g>
				<g>
					<g>
						<g>
							<g>
								<path style="fill:none;" d="M62.497,44.949c4.39-0.316,8.883-0.59,13.332-0.84l-0.834-14.975
									c-4.536,0.255-9.028,0.528-13.615,0.858L62.497,44.949z"/>
							</g>
							<polygon style="fill-rule:evenodd;clip-rule:evenodd;fill:#231815;" points="71.883,36.293 71.972,37.79 74.471,37.646 
								74.386,36.148 							"/>
							<polygon style="fill-rule:evenodd;clip-rule:evenodd;fill:#231815;" points="67.394,36.569 67.49,38.065 69.989,37.909 
								69.897,36.412 							"/>
							<polygon style="fill-rule:evenodd;clip-rule:evenodd;fill:#231815;" points="62.921,36.868 63.027,38.364 65.523,38.194 
								65.424,36.697 							"/>
						</g>
					</g>
					<g>
						<g>
							<g>
								<path style="fill:none;" d="M75.829,44.109c4.46-0.249,8.923-0.467,13.385-0.656l-0.636-14.985
									c-4.53,0.192-9.057,0.414-13.583,0.666L75.829,44.109z"/>
							</g>
							<polygon style="fill-rule:evenodd;clip-rule:evenodd;fill:#231815;" points="85.372,35.585 85.441,37.083 87.942,36.971 
								87.876,35.473 							"/>
							
								<rect x="80.916" y="35.738" transform="matrix(0.9987 -0.0503 0.0503 0.9987 -1.7311 4.1787)" style="fill-rule:evenodd;clip-rule:evenodd;fill:#231815;" width="2.505" height="1.5"/>
							<polygon style="fill-rule:evenodd;clip-rule:evenodd;fill:#231815;" points="76.404,36.035 76.486,37.533 78.986,37.399 
								78.908,35.901 							"/>
						</g>
					</g>
					<g>
						<g>
							<g>
								<path style="fill:none;" d="M89.214,43.453c4.462-0.188,8.923-0.353,13.381-0.471l-0.414-14.993
									c-4.54,0.121-9.072,0.289-13.603,0.479L89.214,43.453z"/>
							</g>
							
								<rect x="98.892" y="35.02" transform="matrix(0.9995 -0.0317 0.0317 0.9995 -1.0842 3.1944)" style="fill-rule:evenodd;clip-rule:evenodd;fill:#231815;" width="2.505" height="1.5"/>
							
								<rect x="94.402" y="35.167" transform="matrix(0.9993 -0.0367 0.0367 0.9993 -1.2538 3.5349)" style="fill-rule:evenodd;clip-rule:evenodd;fill:#231815;" width="2.505" height="1.5"/>
							
								<rect x="89.926" y="35.336" transform="matrix(0.9991 -0.0414 0.0414 0.9991 -1.4152 3.8041)" style="fill-rule:evenodd;clip-rule:evenodd;fill:#231815;" width="2.505" height="1.5"/>
						</g>
					</g>
					<g>
						<g>
							<g>
								<path style="fill:none;" d="M102.595,42.981c4.457-0.119,8.913-0.216,13.359-0.25l-0.136-14.998
									c-4.554,0.035-9.097,0.133-13.637,0.255L102.595,42.981z"/>
							</g>
							
								<rect x="112.386" y="34.727" transform="matrix(0.9999 -0.0144 0.0144 0.9999 -0.4992 1.6406)" style="fill-rule:evenodd;clip-rule:evenodd;fill:#231815;" width="2.505" height="1.5"/>
							
								<rect x="107.893" y="34.797" transform="matrix(0.9998 -0.0207 0.0207 0.9998 -0.7115 2.2637)" style="fill-rule:evenodd;clip-rule:evenodd;fill:#231815;" width="2.505" height="1.5"/>
							
								<rect x="103.416" y="34.895" transform="matrix(0.9997 -0.0264 0.0264 0.9997 -0.9041 2.7743)" style="fill-rule:evenodd;clip-rule:evenodd;fill:#231815;" width="2.505" height="1.5"/>
						</g>
					</g>
					<g>
						<g>
							<g>
								<path style="fill:none;" d="M115.954,42.731c4.446-0.039,8.888-0.041,13.309,0.038l0.246-14.996
									c-4.578-0.082-9.137-0.079-13.691-0.04L115.954,42.731z"/>
							</g>
							<polygon style="fill-rule:evenodd;clip-rule:evenodd;fill:#231815;" points="125.887,34.695 125.874,36.195 128.375,36.225 
								128.396,34.725 							"/>
							<polygon style="fill-rule:evenodd;clip-rule:evenodd;fill:#231815;" points="121.388,34.675 121.388,36.175 123.889,36.183 
								123.897,34.683 							"/>
							<polygon style="fill-rule:evenodd;clip-rule:evenodd;fill:#231815;" points="116.905,34.692 116.916,36.192 119.418,36.18 
								119.413,34.68 							"/>
						</g>
					</g>
					<g>
						<g>
							<g>
								<path style="fill:none;" d="M129.263,42.77c4.422,0.073,8.833,0.2,13.194,0.453l0.84-14.975
									c-4.625-0.267-9.212-0.398-13.789-0.474L129.263,42.77z"/>
							</g>
							<polygon style="fill-rule:evenodd;clip-rule:evenodd;fill:#231815;" points="139.401,35.029 139.336,36.527 141.83,36.65 
								141.909,35.152 							"/>
							<polygon style="fill-rule:evenodd;clip-rule:evenodd;fill:#231815;" points="134.903,34.865 134.858,36.364 137.355,36.451 
								137.411,34.952 							"/>
							<polygon style="fill-rule:evenodd;clip-rule:evenodd;fill:#231815;" points="130.418,34.757 130.39,36.256 132.889,36.313 
								132.927,34.813 							"/>
						</g>
					</g>
					<g>
						<g>
							<g>
								<path style="fill:none;" d="M142.457,43.222c4.358,0.249,8.692,0.59,12.863,1.145l2.001-14.864
									c-4.752-0.631-9.398-0.989-14.024-1.255L142.457,43.222z"/>
							</g>
							<polygon style="fill-rule:evenodd;clip-rule:evenodd;fill:#231815;" points="152.898,35.991 152.739,37.483 155.21,37.767 
								155.398,36.279 							"/>
							<polygon style="fill-rule:evenodd;clip-rule:evenodd;fill:#231815;" points="148.41,35.568 148.29,37.064 150.772,37.289 
								150.913,35.795 							"/>
							<polygon style="fill-rule:evenodd;clip-rule:evenodd;fill:#231815;" points="143.93,35.26 143.84,36.757 146.33,36.925 
								146.436,35.429 							"/>
						</g>
					</g>
					<g>
						<g>
							<g>
								<path style="fill:none;" d="M155.32,44.367c2.073,0.286,4.122,0.614,6.02,1.039l1.404,0.327
									c0.481,0.102,0.855,0.253,1.288,0.372c0.916,0.234,1.503,0.539,2.198,0.783l6.343-13.591
									c-1.398-0.579-2.871-1.193-4.138-1.529c-1.34-0.434-2.585-0.714-3.837-1.001c-2.494-0.556-4.894-0.934-7.278-1.263
									L155.32,44.367z"/>
							</g>
							<polygon style="fill-rule:evenodd;clip-rule:evenodd;fill:#231815;" points="166.265,38.391 165.83,39.827 166.995,40.178 
								168.108,40.618 168.677,39.23 167.483,38.759 							"/>
							<path style="fill-rule:evenodd;clip-rule:evenodd;fill:#231815;" d="M161.854,37.304l-0.294,1.471
								c0.812,0.145,1.6,0.362,2.401,0.539l0.362-1.456C163.499,37.675,162.682,37.452,161.854,37.304z"/>
							<path style="fill-rule:evenodd;clip-rule:evenodd;fill:#231815;" d="M157.409,36.557l-0.215,1.485
								c0.817,0.127,1.643,0.218,2.45,0.381l0.255-1.478C159.073,36.778,158.239,36.687,157.409,36.557z"/>
						</g>
					</g>
				</g>
			</g>
		</g>
		<g>
			<path style="fill:#A2D5D0;" d="M61.938,192.113c0,0,86.495,2.621,112.705-5.242"/>
			<g>
				<g>
					<g>
						<g>
							<g>
								<path style="fill:none;" d="M61.711,199.609c4.794,0.137,9.504,0.216,14.252,0.292l0.214-14.997
									c-4.674-0.075-9.386-0.154-14.012-0.286L61.711,199.609z"/>
							</g>
							
								<rect x="72.961" y="191.271" transform="matrix(0.0173 -0.9999 0.9999 0.0173 -120.1148 262.9606)" style="fill-rule:evenodd;clip-rule:evenodd;fill:#231815;" width="1.5" height="2.624"/>
							
								<rect x="68.255" y="191.187" transform="matrix(0.0214 -0.9998 0.9998 0.0214 -124.9264 257.3682)" style="fill-rule:evenodd;clip-rule:evenodd;fill:#231815;" width="1.5" height="2.624"/>
							<polygon style="fill-rule:evenodd;clip-rule:evenodd;fill:#231815;" points="63.023,191.612 62.983,193.112 65.609,193.177 
								65.644,191.678 							"/>
						</g>
					</g>
					<g>
						<g>
							<g>
								<path style="fill:none;" d="M75.964,199.9c4.739,0.065,9.478,0.103,14.218,0.123l0.047-14.998
									c-4.684-0.02-9.367-0.058-14.052-0.122L75.964,199.9z"/>
							</g>
							
								<rect x="87.098" y="191.418" transform="matrix(0.0061 -1 1 0.0061 -105.411 279.4081)" style="fill-rule:evenodd;clip-rule:evenodd;fill:#231815;" width="1.5" height="2.624"/>
							
								<rect x="82.392" y="191.387" transform="matrix(0.0098 -1 1 0.0098 -110.3606 273.9553)" style="fill-rule:evenodd;clip-rule:evenodd;fill:#231815;" width="1.5" height="2.624"/>
							
								<rect x="77.701" y="191.337" transform="matrix(0.0134 -0.9999 0.9999 0.0134 -115.2346 268.506)" style="fill-rule:evenodd;clip-rule:evenodd;fill:#231815;" width="1.5" height="2.624"/>
						</g>
					</g>
					<g>
						<g>
							<g>
								<path style="fill:none;" d="M90.182,200.024c4.741,0.001,9.482,0.008,14.228-0.048l-0.139-14.998
									c-4.677,0.055-9.36,0.048-14.042,0.048L90.182,200.024z"/>
							</g>
							
								<rect x="100.674" y="191.967" transform="matrix(1 -0.0058 0.0058 1 -1.1196 0.5967)" style="fill-rule:evenodd;clip-rule:evenodd;fill:#231815;" width="2.624" height="1.5"/>
							
								<rect x="95.967" y="191.992" transform="matrix(1 -0.0017 0.0017 1 -0.3253 0.1645)" style="fill-rule:evenodd;clip-rule:evenodd;fill:#231815;" width="2.624" height="1.5"/>
							
								<rect x="91.838" y="191.433" transform="matrix(0.0023 -1 1 0.0023 -100.3678 284.894)" style="fill-rule:evenodd;clip-rule:evenodd;fill:#231815;" width="1.5" height="2.624"/>
						</g>
					</g>
					<g>
						<g>
							<g>
								<path style="fill:none;" d="M104.41,199.975c4.743-0.023,9.496-0.137,14.246-0.227l-0.364-14.994
									c-4.671,0.088-9.34,0.2-14.021,0.223L104.41,199.975z"/>
							</g>
							<polygon style="fill-rule:evenodd;clip-rule:evenodd;fill:#231815;" points="114.796,191.794 114.826,193.294 
								117.452,193.246 117.418,191.747 							"/>
							
								<rect x="110.105" y="191.856" transform="matrix(0.9999 -0.015 0.015 0.9999 -2.8677 1.6876)" style="fill-rule:evenodd;clip-rule:evenodd;fill:#231815;" width="2.624" height="1.5"/>
							<polygon style="fill-rule:evenodd;clip-rule:evenodd;fill:#231815;" points="105.406,191.937 105.422,193.437 
								108.048,193.414 108.028,191.914 							"/>
						</g>
					</g>
					<g>
						<g>
							<g>
								<path style="fill:none;" d="M118.656,199.749c4.757-0.143,9.51-0.26,14.281-0.498l-0.674-14.983
									c-4.641,0.232-9.309,0.347-13.971,0.487L118.656,199.749z"/>
							</g>
							
								<rect x="128.943" y="191.332" transform="matrix(0.9992 -0.0388 0.0388 0.9992 -7.3467 5.1927)" style="fill-rule:evenodd;clip-rule:evenodd;fill:#231815;" width="2.625" height="1.5"/>
							<polygon style="fill-rule:evenodd;clip-rule:evenodd;fill:#231815;" points="124.216,191.551 124.264,193.05 126.89,192.972 
								126.837,191.473 							"/>
							
								<rect x="119.55" y="191.65" transform="matrix(0.9997 -0.0257 0.0257 0.9997 -4.9078 3.1717)" style="fill-rule:evenodd;clip-rule:evenodd;fill:#231815;" width="2.625" height="1.5"/>
						</g>
					</g>
					<g>
						<g>
							<g>
								<path style="fill:none;" d="M132.937,199.251c4.762-0.177,9.55-0.512,14.337-0.829l-1.126-14.956
									c-4.615,0.304-9.229,0.629-13.885,0.802L132.937,199.251z"/>
							</g>
							<polygon style="fill-rule:evenodd;clip-rule:evenodd;fill:#231815;" points="143.017,190.659 143.116,192.156 
								145.74,191.993 145.632,190.497 							"/>
							<polygon style="fill-rule:evenodd;clip-rule:evenodd;fill:#231815;" points="138.325,190.95 138.409,192.448 
								141.033,192.285 140.941,190.788 							"/>
							<polygon style="fill-rule:evenodd;clip-rule:evenodd;fill:#231815;" points="133.646,191.182 133.716,192.681 
								136.341,192.565 136.264,191.067 							"/>
						</g>
					</g>
					<g>
						<g>
							<g>
								<path style="fill:none;" d="M147.274,198.422l7.211-0.619c2.412-0.235,4.848-0.559,7.271-0.836l-1.965-14.869
									c-2.259,0.255-4.494,0.557-6.771,0.779l-6.872,0.59L147.274,198.422z"/>
							</g>
							<polygon style="fill-rule:evenodd;clip-rule:evenodd;fill:#231815;" points="157.072,189.436 157.241,190.927 
								159.859,190.616 159.67,189.128 							"/>
							<path style="fill-rule:evenodd;clip-rule:evenodd;fill:#231815;" d="M152.402,189.923l0.14,1.493
								c0.874-0.083,1.749-0.132,2.621-0.243l-0.154-1.492C154.144,189.791,153.271,189.84,152.402,189.923z"/>
							<polygon style="fill-rule:evenodd;clip-rule:evenodd;fill:#231815;" points="147.737,190.323 147.855,191.819 
								150.477,191.594 150.346,190.099 							"/>
						</g>
					</g>
					<g>
						<g>
							<g>
								<path style="fill:none;" d="M161.756,196.966c1.204-0.122,2.439-0.323,3.677-0.536l3.705-0.618
									c1.213-0.166,2.516-0.501,3.803-0.813l3.857-0.947l-4.31-14.366l-3.011,0.719c-1.003,0.243-1.978,0.514-3.104,0.664
									l-3.267,0.542c-1.083,0.189-2.174,0.37-3.315,0.484L161.756,196.966z"/>
							</g>
							<polygon style="fill-rule:evenodd;clip-rule:evenodd;fill:#231815;" points="170.958,187.219 171.301,188.679 
								173.891,188.05 173.485,186.606 							"/>
							<polygon style="fill-rule:evenodd;clip-rule:evenodd;fill:#231815;" points="166.375,188.134 166.636,189.611 
								169.245,189.177 168.952,187.706 							"/>
							<path style="fill-rule:evenodd;clip-rule:evenodd;fill:#231815;" d="M161.765,188.88l0.204,1.486
								c0.873-0.103,1.74-0.278,2.611-0.413l-0.235-1.482C163.485,188.605,162.632,188.778,161.765,188.88z"/>
						</g>
					</g>
				</g>
			</g>
		</g>
		<g>
			<g>
				<path style="fill:#040000;" d="M81.241,62.802c5.791,0,5.801-9,0-9C75.45,53.802,75.441,62.802,81.241,62.802L81.241,62.802z"/>
			</g>
		</g>
		<g>
			<g>
				<path style="fill:#040000;" d="M124.06,62.802c5.791,0,5.801-9,0-9C118.269,53.802,118.26,62.802,124.06,62.802L124.06,62.802z"
					/>
			</g>
		</g>
		<g>
			<path style="fill:#737374;" d="M116.34,144.892c4.861-8.971,14.19-52.518,10.91-60.817c-0.545-1.38-2.126-2.427-4.407-3.212
				l-9.833,8.756l-0.422-10.536c-8.227-0.637-18.267-0.249-25.769,0.243L85.133,90.11l-8.746-9.924
				c-0.331,0.034-0.509,0.053-0.509,0.053c-4.356,0.161-2.942,42.523,1.873,56.101c0.391,1.102,0.95,2.098,1.624,3.014l8.381-6.847
				v12.703c6.066,2.325,13.555,2.909,19.255,2.647l-0.411-10.252L116.34,144.892z"/>
		</g>
	</g>
	<g>
		<g>
			<path style="fill:#737374;" d="M44.387,106.433c-3.161-3.881-7.639-7.945-9.274-12.761c-1.618-4.764-1.793-10.28-2.148-15.256
				c-0.136-1.915-3.137-1.93-3,0c0.399,5.611,0.553,12.308,2.802,17.532c2.016,4.683,6.33,8.716,9.498,12.607
				C43.485,110.052,45.596,107.919,44.387,106.433L44.387,106.433z"/>
		</g>
	</g>
	<g>
		<g>
			<path style="fill:#737374;" d="M191.113,101.313c8.184-6.42,16.371-13.139,20.787-22.805c0.797-1.743-1.788-3.27-2.59-1.514
				c-4.314,9.441-12.332,15.933-20.318,22.198C187.473,100.383,189.61,102.492,191.113,101.313L191.113,101.313z"/>
		</g>
	</g>
	<g>
		<g>
			<path style="fill:#737374;" d="M79.844,208.541c-4.351,4.959-7.476,10.64-9.292,16.984c-0.532,1.859,2.362,2.653,2.893,0.798
				c1.676-5.855,4.503-11.081,8.521-15.66C83.234,209.216,81.12,207.086,79.844,208.541L79.844,208.541z"/>
		</g>
	</g>
	<g>
		<g>
			<path style="fill:#737374;" d="M155.621,208.773c3.309,5.486,6.617,10.972,9.926,16.458c0.996,1.651,3.591,0.145,2.59-1.514
				c-3.309-5.486-6.617-10.972-9.926-16.458C157.216,205.608,154.621,207.114,155.621,208.773L155.621,208.773z"/>
		</g>
	</g>
</g>
</svg>
