<?xml version="1.0" encoding="iso-8859-1"?>
<!-- Generator: Adobe Illustrator 21.1.0, SVG Export Plug-In . SVG Version: 6.00 Build 0)  -->
<svg version="1.1" id="&#x5716;&#x5C64;_1" xmlns="http://www.w3.org/2000/svg" xmlns:xlink="http://www.w3.org/1999/xlink" x="0px"
	 y="0px" viewBox="0 0 237.821 226.923" style="enable-background:new 0 0 237.821 226.923;" xml:space="preserve">
<g>
	<path style="fill:#683528;" d="M186.32,3.531H68.736c-6.6,0-12,5.4-12,12v182.353c0,6.6,5.4,12,12,12H186.32c6.6,0,12-5.4,12-12
		V15.531C198.32,8.931,192.92,3.531,186.32,3.531z"/>
	<path style="opacity:0.72;fill:#8D523E;" d="M176.039,7.545H62.28c-6.6,0-12,5.4-12,12v180.702c0,6.6,5.4,12,12,12h113.759
		c6.6,0,12-5.4,12-12V19.545C188.039,12.945,182.639,7.545,176.039,7.545z"/>
	<path style="opacity:0.7;fill:#8C453D;" d="M103.048,19.769H70.116c-6.6,0-12,5.4-12,12v32.933c0,6.6,5.4,12,12,12h32.933
		c6.6,0,12-5.4,12-12V31.769C115.048,25.169,109.648,19.769,103.048,19.769z"/>
	<path style="opacity:0.7;fill:#8C453D;" d="M167,19.769h-32.933c-6.6,0-12,5.4-12,12v32.933c0,6.6,5.4,12,12,12H167
		c6.6,0,12-5.4,12-12V31.769C179,25.169,173.6,19.769,167,19.769z"/>
	<g>
		<g>
			<path style="fill:#040000;" d="M84.774,55.897c5.791,0,5.801-9,0-9C78.983,46.897,78.974,55.897,84.774,55.897L84.774,55.897z"/>
		</g>
	</g>
	<g>
		<g>
			<path style="fill:#040000;" d="M142.706,54.944c5.791,0,5.801-9,0-9C136.915,45.944,136.905,54.944,142.706,54.944
				L142.706,54.944z"/>
		</g>
	</g>
	<g>
		<g>
			<path style="fill:#040000;" d="M104.773,69.292c6.59,6.863,16.674,7.754,24.257,1.916c1.508-1.161,0.016-3.769-1.514-2.59
				c-6.532,5.029-14.868,4.544-20.621-1.447C105.555,65.776,103.435,67.899,104.773,69.292L104.773,69.292z"/>
		</g>
	</g>
	<g>
		<path style="opacity:0.7;fill:#774639;" d="M103.048,82.364H70.116c-6.6,0-12,5.4-12,12v32.933c0,6.6,5.4,12,12,12h32.933
			c6.6,0,12-5.4,12-12V94.364C115.048,87.764,109.648,82.364,103.048,82.364z"/>
		<g>
			<g>
				<path style="fill:#737374;" d="M64.03,91.894c-0.096-1.313-0.181-3.233,1.447-3.593c1.884-0.417,1.087-3.31-0.798-2.893
					c-3.01,0.666-3.847,3.789-3.649,6.486C61.171,93.808,64.172,93.824,64.03,91.894L64.03,91.894z"/>
			</g>
		</g>
		<g>
			<g>
				<path style="fill:#737374;" d="M61.045,101.17c0,8.172,0,16.344,0,24.517c0,1.93,3,1.934,3,0c0-8.172,0-16.344,0-24.517
					C64.045,99.24,61.045,99.236,61.045,101.17L61.045,101.17z"/>
			</g>
		</g>
	</g>
	<g>
		<path style="opacity:0.7;fill:#774639;" d="M103.048,144.806H70.116c-6.6,0-12,5.4-12,12v32.933c0,6.6,5.4,12,12,12h32.933
			c6.6,0,12-5.4,12-12v-32.933C115.048,150.206,109.648,144.806,103.048,144.806z"/>
		<g>
			<g>
				<path style="fill:#737374;" d="M64.03,154.336c-0.096-1.313-0.181-3.233,1.447-3.593c1.884-0.417,1.087-3.31-0.798-2.893
					c-3.01,0.666-3.847,3.789-3.649,6.486C61.171,156.25,64.172,156.266,64.03,154.336L64.03,154.336z"/>
			</g>
		</g>
		<g>
			<g>
				<path style="fill:#737374;" d="M61.045,163.612c0,8.172,0,16.344,0,24.517c0,1.93,3,1.934,3,0c0-8.172,0-16.344,0-24.517
					C64.045,161.682,61.045,161.678,61.045,163.612L61.045,163.612z"/>
			</g>
		</g>
	</g>
	<g>
		<path style="opacity:0.7;fill:#774639;" d="M167.292,82.364h-32.933c-6.6,0-12,5.4-12,12v32.933c0,6.6,5.4,12,12,12h32.933
			c6.6,0,12-5.4,12-12V94.364C179.292,87.764,173.892,82.364,167.292,82.364z"/>
		<g>
			<g>
				<path style="fill:#737374;" d="M128.274,91.894c-0.096-1.313-0.181-3.233,1.447-3.593c1.884-0.417,1.087-3.31-0.798-2.893
					c-3.01,0.666-3.847,3.789-3.649,6.486C125.414,93.808,128.415,93.824,128.274,91.894L128.274,91.894z"/>
			</g>
		</g>
		<g>
			<g>
				<path style="fill:#737374;" d="M125.288,101.17c0,8.172,0,16.344,0,24.517c0,1.93,3,1.934,3,0c0-8.172,0-16.344,0-24.517
					C128.288,99.24,125.288,99.236,125.288,101.17L125.288,101.17z"/>
			</g>
		</g>
	</g>
	<g>
		<path style="opacity:0.7;fill:#774639;" d="M167.292,144.806h-32.933c-6.6,0-12,5.4-12,12v32.933c0,6.6,5.4,12,12,12h32.933
			c6.6,0,12-5.4,12-12v-32.933C179.292,150.206,173.892,144.806,167.292,144.806z"/>
		<g>
			<g>
				<path style="fill:#737374;" d="M128.274,154.336c-0.096-1.313-0.181-3.233,1.447-3.593c1.884-0.417,1.087-3.31-0.798-2.893
					c-3.01,0.666-3.847,3.789-3.649,6.486C125.414,156.25,128.415,156.266,128.274,154.336L128.274,154.336z"/>
			</g>
		</g>
		<g>
			<g>
				<path style="fill:#737374;" d="M125.288,163.612c0,8.172,0,16.344,0,24.517c0,1.93,3,1.934,3,0c0-8.172,0-16.344,0-24.517
					C128.288,161.682,125.288,161.678,125.288,163.612L125.288,163.612z"/>
			</g>
		</g>
	</g>
	<g>
		<g>
			<path style="fill:#737374;" d="M92.867,209.979c-4.258,0.037-11,0.67-13.787,4.447c-2.838,3.845,0.601,8.551,0.218,12.717
				c-0.176,1.922,2.825,1.91,3,0c0.29-3.155-1.603-6.062-1.359-9.119c0.359-4.504,8.61-5.015,11.928-5.044
				C94.796,212.963,94.801,209.963,92.867,209.979L92.867,209.979z"/>
		</g>
	</g>
	<g>
		<g>
			<path style="fill:#737374;" d="M146.39,212.3c-3.089,0.715-6.4,1.708-8.066,4.659c-0.649,1.15-0.93,2.517-0.707,3.823
				c0.304,1.778,2.113,3.574,1.805,5.384c-0.321,1.888,2.569,2.7,2.893,0.798c0.439-2.58-1.084-3.913-1.642-6.264
				c-0.885-3.728,3.856-4.891,6.515-5.506C149.067,214.757,148.271,211.864,146.39,212.3L146.39,212.3z"/>
		</g>
	</g>
	<g>
		<g>
			<path style="fill:#737374;" d="M199.451,120.333c5.748-1.079,12.108,1.066,17.072-2.93c3.698-2.977,5.17-7.857,6.381-12.249
				c0.514-1.864-2.38-2.659-2.893-0.798c-1.194,4.334-2.626,9.702-7.097,11.711c-4.337,1.948-9.633,0.504-14.26,1.373
				C196.758,117.796,197.561,120.688,199.451,120.333L199.451,120.333z"/>
		</g>
	</g>
	<g>
		<g>
			<path style="fill:#737374;" d="M34.244,104.992c4.464,7.737,9.9,14.75,16.281,21.002c1.38,1.352,3.503-0.767,2.121-2.121
				c-6.201-6.076-11.473-12.875-15.812-20.394C35.87,101.806,33.276,103.315,34.244,104.992L34.244,104.992z"/>
		</g>
	</g>
</g>
</svg>
