<?xml version="1.0" encoding="iso-8859-1"?>
<!-- Generator: Adobe Illustrator 21.1.0, SVG Export Plug-In . SVG Version: 6.00 Build 0)  -->
<svg version="1.1" id="&#x5716;&#x5C64;_1" xmlns="http://www.w3.org/2000/svg" xmlns:xlink="http://www.w3.org/1999/xlink" x="0px"
	 y="0px" viewBox="0 0 247.606 146.689" style="enable-background:new 0 0 247.606 146.689;" xml:space="preserve">
<g>
	<path style="fill:#FFFFFF;" d="M213.438,35.033c-6.607-1.015-13.08-0.353-19.002,1.651c-2.464-17.085-15.807-31.292-33.753-34.051
		c-10.341-1.589-20.366,0.907-28.438,6.283c-4.395-4.428-10.194-7.541-16.834-8.561C103.535-1.47,92.214,3.888,85.86,13.188
		c-0.915-0.197-1.839-0.375-2.776-0.52c-23.488-3.61-45.573,10.846-52.161,33.001c-13.82,0.737-25.703,11.06-27.889,25.28
		c-2.505,16.298,8.677,31.54,24.974,34.045c1.258,0.193,2.509,0.296,3.749,0.33c-0.109,0.521-0.206,1.048-0.287,1.58
		c-2.505,16.297,8.677,31.54,24.974,34.045c12.224,1.879,23.855-3.943,29.962-13.848c5.951,9.922,16.107,17.22,28.435,19.115
		c11.761,1.808,23.113-1.671,31.647-8.66c2.176,0.733,4.439,1.301,6.786,1.662c19.105,2.936,37.128-8.071,43.745-25.43
		c1.363,0.359,2.756,0.653,4.18,0.871c21.988,3.38,42.553-11.706,45.933-33.695C250.512,58.977,235.426,38.413,213.438,35.033z"/>
</g>
</svg>
