<?xml version="1.0" encoding="iso-8859-1"?>
<!-- Generator: Adobe Illustrator 21.1.0, SVG Export Plug-In . SVG Version: 6.00 Build 0)  -->
<svg version="1.1" id="&#x5716;&#x5C64;_1" xmlns="http://www.w3.org/2000/svg" xmlns:xlink="http://www.w3.org/1999/xlink" x="0px"
	 y="0px" viewBox="0 0 237.821 226.923" style="enable-background:new 0 0 237.821 226.923;" xml:space="preserve">
<g>
	<path style="opacity:0.81;fill:#A57249;" d="M133.997,207.494c-0.131,0.017-0.353,0.034-0.571,0.074
		c-1.103,0.204-2.2,0.452-3.309,0.611c-1.05,0.151-2.112,0.226-3.171,0.307c-1.339,0.102-2.68,0.25-4.02,0.243
		c-1.48-0.007-2.96-0.161-4.44-0.261c-2.009-0.136-4.034-0.167-6.022-0.454c-2.376-0.343-4.741-0.821-7.071-1.399
		c-2.889-0.717-5.69-1.724-8.379-3.023c-0.778-0.376-1.578-0.706-2.446-1.091c-4.52,0.098-6.587-3.866-6.587-3.866
		c-0.67-0.029-1.34-0.081-2.009-0.136c-2.458-0.203-4.841-0.777-7.171-1.552c-1.798-0.598-3.616-1.189-5.322-1.999
		c-2.09-0.991-4.135-2.109-6.087-3.35c-2.514-1.598-4.872-3.431-6.935-5.6c-1.127-1.185-2.224-2.405-3.259-3.671
		c-0.841-1.028-1.579-2.141-2.345-3.23c-1.552-2.208-2.859-4.555-3.524-7.181c-0.221-0.874-0.669-1.409-1.312-1.942
		c-1.317-1.093-2.712-2.135-3.836-3.408c-1.376-1.56-2.586-3.284-3.722-5.032c-1.12-1.725-2.066-3.563-3.07-5.362
		c-3.715-1.953-3.476-7.672-3.476-7.672c-0.731-1.625-1.619-3.205-2.131-4.898c-0.819-2.708-1.404-5.488-2.052-8.247
		c-0.827-3.523-1.298-7.099-1.509-10.71c-0.053-0.903-0.129-1.807-0.137-2.711c-0.02-2.228-0.013-4.456-0.001-6.684
		c0.003-0.435,0.159-0.878,0.109-1.302c-0.08-0.678-0.323-1.337-0.409-2.015c-0.297-2.351-0.582-4.705-0.81-7.063
		c-0.066-0.682,0.05-1.387,0.128-2.077c0.229-2.011,0.353-4.046,0.755-6.023c0.604-2.968,1.625-5.815,3.077-8.493
		c0.117-0.215,0.199-0.466,0.23-0.709c0.248-1.964,0.364-3.952,0.742-5.889c0.675-3.454,1.546-6.859,2.707-10.197
		c1.179-3.392,2.774-6.575,4.479-9.708c0.874-1.606,1.892-3.142,2.946-4.639c1.102-1.565,2.257-3.102,3.805-4.285
		c0.439-0.336,0.921-0.699,1.185-1.162c0.621-1.092,1.081-2.275,1.681-3.38c1.257-2.316,2.799-4.434,4.645-6.32
		c1.037-1.06,2.066-2.13,3.153-3.137c0.964-0.893,1.931-1.816,3.025-2.529c1.995-1.3,4.037-2.545,6.149-3.641
		c1.637-0.85,3.412-1.432,5.121-2.145c0.545-0.228,1.245-0.355,1.582-0.767c1.357-1.66,2.911-3.085,4.593-4.402
		c3.96-3.101,8.385-5.337,13.086-7.032c3.142-1.133,6.34-2.116,9.671-2.555c2.326-0.306,4.66-0.557,6.989-0.838
		c0.191-0.023,0.376-0.092,0.564-0.14c2.388,0,4.775,0,7.163,0c0.047,0.043,0.092,0.121,0.143,0.124
		c2.526,0.169,5.048,0.363,7.482,1.142c0.143,0.046,0.343,0.03,0.479-0.035c2.039-0.976,4.263-0.95,6.425-1.053
		c3.227-0.153,6.462-0.058,9.678,0.375c1.167,0.157,2.363,0.117,3.521,0.313c2.845,0.48,5.667,1.094,8.336,2.225
		c2.565,1.088,5.126,2.193,7.636,3.401c1.504,0.724,2.902,1.666,4.353,2.501c2.373,1.366,4.587,2.941,6.425,4.99
		c0.326,0.363,0.684,0.531,1.137,0.629c1.854,0.4,3.719,0.762,5.55,1.251c2.65,0.708,5.174,1.784,7.475,3.262
		c1.869,1.201,3.672,2.541,5.342,4.005c1.455,1.276,2.728,2.771,3.998,4.241c1.82,2.108,3.307,4.459,4.654,6.891
		c1.41,2.544,2.851,5.081,3.722,7.88c0.254,0.816,0.545,1.468,1.341,2.013c2.005,1.374,3.8,3.014,5.393,4.879
		c1.412,1.653,2.678,3.395,3.666,5.323c1.455,2.841,2.598,5.799,3.3,8.931c0.478,2.132,0.942,4.257,1.071,6.445
		c0.046,0.78,0.24,1.555,0.249,2.334c0.018,1.467-0.034,2.935-0.087,4.401c-0.038,1.063-0.399,2.113,0.286,3.152
		c0.551,0.835,0.995,1.762,1.348,2.7c0.959,2.549,1.839,5.128,2.138,7.86c0.235,2.153,0.497,4.304,0.674,6.461
		c0.066,0.801-0.041,1.623-0.13,2.428c-0.139,1.257-0.274,2.518-0.512,3.758c-0.285,1.48-0.663,2.943-1.026,4.407
		c-0.593,2.387-1.49,4.665-2.688,6.807c-0.505,0.903-0.918,1.748-0.551,2.796c0.058,0.167,0.024,0.373,0.006,0.559
		c-0.087,0.871-0.154,1.746-0.283,2.611c-0.3,2.007-0.874,3.948-1.849,5.721c-1.168,2.124-2.637,4.047-4.317,5.805
		c-0.195,0.204-0.378,0.495-0.41,0.765c-0.095,0.804-0.106,1.618-0.16,2.428c-0.089,1.339-0.127,2.685-0.29,4.015
		c-0.402,3.28-1.478,6.373-2.844,9.358c-1.298,2.838-2.767,5.597-4.618,8.117c-1.511,2.058-3.087,4.075-4.74,6.019
		c-1.092,1.285-2.334,2.451-3.58,3.594c-1.189,1.091-2.415,2.157-3.724,3.098c-1.822,1.309-3.696,2.557-5.621,3.708
		c-1.745,1.044-3.565,1.971-5.396,2.859c-1.439,0.698-2.919,1.332-4.428,1.861c-1.957,0.686-3.962,1.235-5.944,1.853
		c-0.403,0.126-0.856,0.212-1.178,0.459c-1.606,1.232-3.1,2.625-4.775,3.749c-3.321,2.23-6.866,4.06-10.585,5.559
		c-3.647,1.471-7.414,2.269-11.344,2.305c-0.414,0.004-0.828,0.001-1.363,0.001C137.287,207.811,133.997,207.494,133.997,207.494z"
		/>
	<g style="opacity:0.81;">
		<path style="fill:#CD8B4A;" d="M126.575,205.945c-0.131,0.017-0.353,0.034-0.571,0.074c-1.103,0.204-2.2,0.452-3.309,0.611
			c-1.05,0.151-2.112,0.226-3.171,0.307c-1.339,0.102-2.68,0.25-4.02,0.243c-1.48-0.007-2.96-0.161-4.44-0.261
			c-2.009-0.136-4.034-0.167-6.022-0.454c-2.376-0.343-4.741-0.821-7.071-1.399c-2.889-0.717-5.69-1.724-8.379-3.023
			c-0.778-0.376-1.578-0.706-2.446-1.091c-4.52,0.098-6.587-3.866-6.587-3.866c-0.67-0.029-1.34-0.081-2.009-0.136
			c-2.458-0.203-4.841-0.777-7.171-1.552c-1.798-0.598-3.616-1.189-5.322-1.999c-2.09-0.991-4.135-2.109-6.087-3.35
			c-2.514-1.598-4.872-3.431-6.935-5.6c-1.127-1.185-2.224-2.405-3.259-3.671c-0.841-1.028-1.579-2.141-2.345-3.23
			c-1.552-2.208-2.859-4.555-3.524-7.181c-0.221-0.874-0.669-1.409-1.312-1.942c-1.317-1.093-2.712-2.135-3.836-3.408
			c-1.376-1.56-2.586-3.284-3.722-5.032c-1.12-1.725-2.066-3.563-3.07-5.362c-3.715-1.953-3.476-7.672-3.476-7.672
			c-0.731-1.625-1.619-3.205-2.131-4.898c-0.819-2.708-1.404-5.488-2.052-8.247c-0.827-3.523-1.298-7.099-1.509-10.71
			c-0.053-0.903-0.129-1.807-0.137-2.711c-0.02-2.228-0.013-4.456-0.001-6.684c0.003-0.435,0.159-0.878,0.109-1.302
			c-0.08-0.678-0.323-1.337-0.409-2.015c-0.297-2.351-0.582-4.705-0.81-7.063c-0.066-0.682,0.05-1.387,0.128-2.077
			c0.229-2.011,0.353-4.046,0.755-6.023c0.604-2.968,1.625-5.815,3.077-8.493c0.117-0.215,0.199-0.466,0.23-0.709
			c0.248-1.964,0.364-3.952,0.742-5.889c0.675-3.454,1.546-6.859,2.707-10.197c1.179-3.392,2.774-6.575,4.479-9.708
			c0.874-1.606,1.892-3.142,2.946-4.639c1.102-1.565,2.257-3.102,3.805-4.285c0.439-0.336,0.921-0.699,1.185-1.162
			c0.621-1.092,1.081-2.275,1.681-3.38c1.257-2.316,2.799-4.434,4.645-6.32c1.037-1.06,2.066-2.13,3.153-3.137
			c0.964-0.893,1.931-1.816,3.025-2.529c1.995-1.3,4.037-2.545,6.149-3.641c1.637-0.85,3.412-1.432,5.121-2.145
			c0.545-0.228,1.245-0.355,1.582-0.767c1.357-1.66,2.911-3.085,4.593-4.402c3.96-3.101,8.385-5.337,13.086-7.032
			c3.142-1.133,6.34-2.116,9.671-2.555c2.326-0.306,4.66-0.557,6.989-0.838c0.191-0.023,0.376-0.092,0.564-0.14
			c2.388,0,4.775,0,7.163,0c0.047,0.043,0.092,0.121,0.143,0.124c2.526,0.169,5.048,0.363,7.482,1.142
			c0.143,0.046,0.343,0.03,0.479-0.035c2.039-0.976,4.263-0.95,6.425-1.053c3.227-0.153,6.462-0.058,9.678,0.375
			c1.167,0.157,2.363,0.117,3.521,0.313c2.845,0.48,5.667,1.094,8.336,2.225c2.565,1.088,5.126,2.193,7.636,3.401
			c1.504,0.724,2.902,1.666,4.353,2.501c2.373,1.366,4.587,2.941,6.425,4.99c0.326,0.363,0.684,0.531,1.137,0.629
			c1.854,0.4,3.719,0.762,5.55,1.251c2.65,0.708,5.174,1.784,7.475,3.262c1.869,1.201,3.672,2.541,5.342,4.005
			c1.455,1.276,2.728,2.771,3.998,4.241c1.82,2.108,3.307,4.459,4.654,6.891c1.41,2.544,2.851,5.081,3.722,7.88
			c0.254,0.816,0.545,1.468,1.341,2.013c2.005,1.374,3.8,3.014,5.393,4.879c1.412,1.653,2.678,3.395,3.666,5.323
			c1.455,2.841,2.598,5.799,3.3,8.931c0.478,2.132,0.942,4.257,1.071,6.445c0.046,0.78,0.24,1.555,0.249,2.334
			c0.018,1.467-0.034,2.935-0.087,4.401c-0.038,1.063-0.399,2.113,0.286,3.152c0.551,0.835,0.995,1.762,1.348,2.7
			c0.959,2.549,1.839,5.128,2.138,7.86c0.235,2.153,0.497,4.304,0.674,6.461c0.066,0.801-0.041,1.623-0.13,2.428
			c-0.139,1.257-0.274,2.518-0.512,3.758c-0.285,1.48-0.662,2.943-1.026,4.407c-0.593,2.387-1.49,4.665-2.688,6.807
			c-0.505,0.903-0.918,1.748-0.551,2.796c0.058,0.167,0.024,0.373,0.006,0.559c-0.087,0.871-0.154,1.746-0.283,2.611
			c-0.3,2.007-0.874,3.948-1.849,5.721c-1.168,2.124-2.637,4.047-4.317,5.805c-0.195,0.204-0.378,0.495-0.41,0.765
			c-0.095,0.804-0.106,1.618-0.16,2.428c-0.089,1.339-0.127,2.685-0.29,4.015c-0.402,3.28-1.478,6.373-2.844,9.358
			c-1.298,2.838-2.767,5.597-4.618,8.117c-1.511,2.058-3.087,4.075-4.74,6.019c-1.092,1.285-2.334,2.451-3.58,3.594
			c-1.189,1.091-2.415,2.157-3.724,3.098c-1.822,1.309-3.696,2.557-5.621,3.708c-1.745,1.044-3.565,1.971-5.396,2.859
			c-1.439,0.698-2.919,1.332-4.428,1.861c-1.957,0.686-3.962,1.235-5.944,1.853c-0.403,0.126-0.856,0.212-1.178,0.459
			c-1.606,1.232-3.1,2.625-4.775,3.749c-3.321,2.23-6.866,4.06-10.585,5.559c-3.647,1.471-7.414,2.269-11.344,2.305
			c-0.414,0.004-0.828,0.001-1.363,0.001C129.865,206.262,126.575,205.945,126.575,205.945z"/>
	</g>
	<g>
		<g>
			<path style="fill:#040000;" d="M70.812,70.877c7.721,0,7.734-12,0-12C63.09,58.877,63.077,70.877,70.812,70.877L70.812,70.877z"
				/>
		</g>
	</g>
	<g>
		<g>
			<path style="fill:#040000;" d="M112.16,73.2c7.721,0,7.734-12,0-12C104.438,61.2,104.426,73.2,112.16,73.2L112.16,73.2z"/>
		</g>
	</g>
	<g>
		<g>
			<path style="fill:#040000;" d="M75.426,80.717c6.727,7.006,17.016,7.912,24.756,1.953c1.508-1.161,0.016-3.769-1.514-2.59
				c-6.689,5.15-15.23,4.65-21.12-1.484C76.207,77.201,74.088,79.324,75.426,80.717L75.426,80.717z"/>
		</g>
	</g>
	<g>
		<path style="opacity:0.68;fill:#1A1A1A;" d="M71.302,184.135c0,0,4.317,3.636,5.681,3.636s3.408-1.818,3.408-1.818
			s-1.591-3.181-2.727-3.636c-1.136-0.454-3.181-1.818-4.772,0C71.302,184.135,70.848,182.09,71.302,184.135z"/>
		<path style="opacity:0.68;fill:#1A1A1A;" d="M51.006,104.391c0,0,0.482,5.624,1.446,6.588s3.696,1.125,3.696,1.125
			s1.125-3.374,0.643-4.499c-0.482-1.125-0.964-3.535-3.374-3.374C51.006,104.391,52.131,102.623,51.006,104.391z"/>
		<path style="opacity:0.68;fill:#1A1A1A;" d="M131.779,167.462c-0.54,0.899,3.778,1.259,4.677,1.259
			c0.899,0,3.778-2.159,3.058-3.598c-0.72-1.439-1.731-2.878-3.834-2.159s-4.261,2.507-3.902,2.783
			C132.139,166.023,131.779,167.462,131.779,167.462z"/>
		<path style="opacity:0.68;fill:#1A1A1A;" d="M157.62,104.74c0.254,1.018,3.562-1.781,4.198-2.417s1.145-4.198-0.382-4.707
			c-1.526-0.509-3.259-0.811-4.237,1.184c-0.978,1.996-1.241,4.786-0.791,4.726C156.857,103.468,157.62,104.74,157.62,104.74z"/>
		<path style="opacity:0.68;fill:#1A1A1A;" d="M152.996,141.26c0,0,1.411,4.798,0,5.645c-1.411,0.847-3.246-2.963-2.54-2.822
			S151.868,140.272,152.996,141.26z"/>
		<path style="opacity:0.68;fill:#1A1A1A;" d="M42.953,125.022c0,0-4.478,2.226-5.558,0.985s2.352-3.713,2.336-2.993
			C39.715,123.733,43.729,123.738,42.953,125.022z"/>
		<path style="opacity:0.68;fill:#1A1A1A;" d="M44.64,81.3c1.495,0.465,2.088,0.522,2.088,1.827s-1.566,4.697-2.088,5.741
			c-0.522,1.044-2.088,0-1.044-3.784C44.64,81.3,42.896,80.758,44.64,81.3z"/>
		<path style="opacity:0.68;fill:#1A1A1A;" d="M149.733,45.532c-0.965,1.233-1.229,1.767-2.449,1.304
			c-1.22-0.463-3.836-3.131-4.626-3.989c-0.791-0.858,0.741-1.952,3.908,0.367C149.733,45.532,150.858,44.093,149.733,45.532z"/>
		<path style="opacity:0.68;fill:#1A1A1A;" d="M175.461,153.365c0.391,1.81,0.632,2.491-0.252,2.863
			c-0.884,0.372-3.922-0.417-4.875-0.704s-0.986-2.342,2.071-2.25S175.005,151.254,175.461,153.365z"/>
		<path style="opacity:0.68;fill:#1A1A1A;" d="M80.247,30.044c0,0,7.098-3.012,7.624-0.892c0.526,2.12-1.836,5.708-2.007,4.25
			c-0.171-1.458-2.486-3.077-2.532-1.719C83.287,33.041,80.052,32.344,80.247,30.044z"/>
		<path style="opacity:0.68;fill:#1A1A1A;" d="M101.123,191.466c0,0,0.285-7.622,1.094-7.544c0.808,0.078,1.582,3.325,1.061,3.088
			c-0.521-0.237-1.488,1.535-1.04,1.952C102.686,189.378,101.86,192.284,101.123,191.466z"/>
	</g>
	<g>
		<g>
			<path style="fill:#737374;" d="M18.788,99.248c-1.803-0.515-17.267-6.069-13.854-9.959c1.268-1.446-0.845-3.576-2.121-2.121
				c-6.485,7.393,10.553,13.653,15.178,14.973C19.85,102.672,20.644,99.778,18.788,99.248L18.788,99.248z"/>
		</g>
	</g>
	<g>
		<g>
			<path style="fill:#737374;" d="M221.263,96.158c8.033-5.772,15.674-12.545,16.519-23.007c0.156-1.925-2.845-1.914-3,0
				c-0.75,9.286-7.979,15.348-15.033,20.417C218.195,94.684,219.691,97.287,221.263,96.158L221.263,96.158z"/>
		</g>
	</g>
	<g>
		<g>
			<path style="fill:#737374;" d="M71.625,197.219c-2.998,4.812-5.401,9.912-7.235,15.276c-0.626,1.831,2.271,2.617,2.893,0.798
				c1.754-5.13,4.066-9.959,6.932-14.559C75.24,197.09,72.645,195.582,71.625,197.219L71.625,197.219z"/>
		</g>
	</g>
	<g>
		<g>
			<path style="fill:#737374;" d="M181.052,190.056c-0.133,5.398-0.505,10.771-1.223,16.124c-0.612,4.564-1.583,8.895-0.815,13.495
				c0.317,1.9,3.209,1.094,2.893-0.798c-0.843-5.048,0.666-10.184,1.24-15.206c0.518-4.526,0.792-9.063,0.905-13.616
				C184.099,188.125,181.099,188.126,181.052,190.056L181.052,190.056z"/>
		</g>
	</g>
</g>
</svg>
