<?xml version="1.0" encoding="iso-8859-1"?>
<!-- Generator: Adobe Illustrator 21.1.0, SVG Export Plug-In . SVG Version: 6.00 Build 0)  -->
<svg version="1.1" id="&#x5716;&#x5C64;_1" xmlns="http://www.w3.org/2000/svg" xmlns:xlink="http://www.w3.org/1999/xlink" x="0px"
	 y="0px" viewBox="0 0 237.821 226.923" style="enable-background:new 0 0 237.821 226.923;" xml:space="preserve">
<g>
	<path style="fill:#EFD876;" d="M31.253,214.457c4.043,0.634,8.616,1.141,11.829-1.393c2.08-1.64,3.129-4.238,3.952-6.755
		c4.026-12.317,4.699-25.44,5.34-38.382c0.318-6.42,0.636-12.841,0.954-19.261c0.493-9.946,0.986-19.893,1.478-29.839
		c1.057-21.345,2.115-42.69,2.815-64.05c-6.342-0.938-12.755-1.399-19.167-1.378c-2.187,0.007-4.525,0.119-6.293,1.407
		c-1.771,1.291-2.593,3.489-3.282,5.57c-6.141,18.531-9.202,38.079-9.021,57.601c0.042,4.479,0.252,8.954,0.463,13.429
		c1.154,24.505,2.308,49.011,3.462,73.516c0.1,2.121,0.278,4.436,1.732,5.983c2.336,2.487,6.795,1.782,9.152,4.248"/>
</g>
<g>
	<path style="fill:#F1C24E;" d="M29.138,91.901"/>
	<g>
		<path style="fill:#737374;" d="M29.138,93.401c1.93,0,1.934-3,0-3C27.208,90.401,27.204,93.401,29.138,93.401L29.138,93.401z"/>
	</g>
</g>
<g>
	<path style="fill:#F1C24E;" d="M36.656,92.57"/>
	<g>
		<path style="fill:#737374;" d="M36.656,94.07c1.93,0,1.934-3,0-3C34.726,91.07,34.723,94.07,36.656,94.07L36.656,94.07z"/>
	</g>
</g>
<g>
	<g>
		<path style="fill:#737374;" d="M23.624,104.346c-0.381,3.729,3.212,6.384,6.665,6.457c3.589,0.076,6.785-2.11,8.07-5.413
			c0.7-1.8-2.199-2.58-2.893-0.798c-1.378,3.544-9.365,4.866-8.843-0.246C26.82,102.427,23.819,102.441,23.624,104.346
			L23.624,104.346z"/>
	</g>
</g>
<g>
	<path style="fill:#737373;" d="M22.282,203.737c-2.103,0.247-3.81,1.824-5.051,3.539s-2.187,3.654-3.637,5.197
		s-3.619,2.666-5.662,2.109c-0.422,0.406-0.217,1.172,0.251,1.523c0.469,0.351,1.09,0.402,1.674,0.441
		c1.112,0.073,2.398,0.077,3.124-0.768"/>
	<g>
		<path style="fill:#737374;" d="M21.883,202.291c-2.278,0.451-4.038,1.792-5.461,3.594c-2.059,2.607-3.948,7.907-8.092,7.252
			c-0.607-0.096-1.403,0.05-1.694,0.689c-2.04,4.482,4.884,5.101,7.405,3.014c1.488-1.232-0.644-3.344-2.121-2.121
			c-0.583,0.483-2.393-0.037-2.693,0.622c-0.565,0.23-1.129,0.46-1.694,0.689c3.118,0.493,5.705-0.779,7.714-3.179
			c2.294-2.741,3.514-6.89,7.433-7.667C24.573,204.809,23.772,201.917,21.883,202.291L21.883,202.291z"/>
	</g>
</g>
<g>
	<path style="fill:#737373;" d="M26.867,210.433c-2.026,0.835-2.451,3.522-2.574,5.75c-0.101,1.844-0.202,3.688-0.304,5.532
		c-0.03,0.541-0.08,1.133-0.448,1.523c-0.392,0.417-1.016,0.47-1.582,0.498c-0.759,0.037-1.518,0.074-2.276,0.11
		c-0.54,0.026-1.13,0.037-1.561-0.298c-0.873-0.68-0.298-2.263,0.73-2.66c1.027-0.397,2.169-0.013,3.201,0.37"/>
	<g>
		<path style="fill:#737374;" d="M26.11,209.138c-2.391,1.295-3.04,3.817-3.269,6.365c-0.155,1.717,0.078,3.617-0.3,5.29
			c-0.29,1.283-0.171,1.214-1.339,1.48c-0.506,0.025-1.012,0.049-1.518,0.074c0.693-0.055,1.35,0.065,1.972,0.358
			c1.827,0.635,2.613-2.262,0.798-2.893c-2.24-0.779-5.319-0.944-6.124,1.902c-0.73,2.581,1.544,3.674,3.734,3.614
			c2.38-0.064,4.725-0.069,5.329-2.795c0.634-2.86-0.874-9.124,2.231-10.805C29.323,210.809,27.81,208.218,26.11,209.138
			L26.11,209.138z"/>
	</g>
</g>
<g>
	<path style="fill:#737373;" d="M54.994,127.155c4.238,2.897,5.745,8.32,7.261,13.225c0.53,1.714,1.327,3.652,3.049,4.157
		c0.625,0.183,1.338,0.159,1.855,0.555c0.682,0.521,0.7,1.626,0.186,2.314c-0.514,0.687-1.41,0.997-2.268,1.025
		c-0.881,0.028-1.853-0.267-2.301-1.027c-0.448-0.759-0.015-1.979,0.865-2.029"/>
	<g>
		<path style="fill:#737374;" d="M54.237,128.45c4.155,3.178,5.08,8.21,6.749,12.85c0.454,1.261,0.966,2.537,1.961,3.473
			c0.493,0.464,1.117,0.639,1.6,1.059c1.028,0.894,2.496-0.564-0.148,0.838c1.706-0.905,0.192-3.495-1.514-2.59
			c-6.776,3.592,6.686,9.88,6.266,2.114c-0.071-1.309-0.685-1.786-1.593-2.548c-1.587-1.331-3.067-1.41-3.857-3.664
			c-0.397-1.134-0.696-2.303-1.082-3.441c-1.433-4.23-3.264-7.924-6.869-10.681C54.218,124.687,52.722,127.292,54.237,128.45
			L54.237,128.45z"/>
	</g>
</g>
<g>
	<path style="fill:#737373;" d="M20.12,130.952c-2.956,3.554-5.085,7.79-6.174,12.282c-0.575,2.373-0.987,5.032-2.872,6.583
		c-0.872,0.718-1.993,1.124-2.754,1.958s-0.915,2.414,0.094,2.922c0.782,0.394,1.774-0.158,2.171-0.939
		c0.397-0.781,0.36-1.702,0.314-2.577c1.028,1.104-0.181,3.284-1.662,2.995"/>
	<g>
		<path style="fill:#737374;" d="M19.059,129.891c-2.732,3.462-4.883,7.213-6.159,11.456c-0.898,2.988-0.968,5.626-3.517,7.815
			c-1.139,0.979-2.33,1.336-2.897,2.871c-0.608,1.645-0.031,3.575,1.728,4.136c3.167,1.012,4.199-2.761,4.184-4.989
			c-0.932,0.252-1.863,0.505-2.795,0.757c-0.122,0.246-0.245,0.492-0.367,0.738c-1.897,0.214-1.919,3.216,0,3
			c2.835-0.32,4.199-2.65,2.957-5.253c-0.659-1.38-2.805-0.659-2.795,0.757c0.013,1.884,3.408-0.967,3.68-1.317
			c0.869-1.116,1.33-2.479,1.732-3.815c1.553-5.155,2.954-9.708,6.37-14.036C22.364,130.513,20.255,128.376,19.059,129.891
			L19.059,129.891z"/>
	</g>
</g>
<g>
	<path style="fill:#EFD876;" d="M110.972,3.065c11.436,0.018,22.872,0.036,34.308,0.054c-1.025,15.414-2.05,30.828-3.076,46.243
		c-0.778,11.703-1.557,23.406-2.161,35.119c-1.733,33.584-2.035,67.242-0.906,100.852c0.175,5.193,0.288,10.755-2.522,15.126
		c-1.749,2.72-4.451,4.665-7.137,6.465c-3.439,2.304-7.579,4.573-11.516,3.293c-5.516-1.794-6.706-8.936-6.937-14.732
		c-0.308-7.738-0.617-15.476-0.925-23.214c-0.35-8.783-0.7-17.582-0.211-26.359c0.682-12.226,2.98-24.599,0.562-36.603
		c-0.656-3.259-1.655-6.445-2.211-9.722c-0.744-4.383-0.686-8.858-0.626-13.304c0.192-14.228,0.384-28.457,0.576-42.685
		c0.086-6.394,0.173-12.788,0.259-19.183c0.095-7.022,0.341-14.532,4.416-20.251"/>
</g>
<g>
	<path style="fill:#EFD876;" d="M115.169,30.073"/>
	<g>
		<path style="fill:#737374;" d="M115.169,31.573c1.93,0,1.934-3,0-3C113.238,28.573,113.235,31.573,115.169,31.573L115.169,31.573z
			"/>
	</g>
</g>
<g>
	<path style="fill:#EFD876;" d="M126.43,30.881"/>
	<g>
		<path style="fill:#737374;" d="M126.43,32.381c1.93,0,1.934-3,0-3C124.5,29.381,124.497,32.381,126.43,32.381L126.43,32.381z"/>
	</g>
</g>
<g>
	<path style="fill:#EFD876;" d="M111.494,42.52c-0.91,3.089,1.648,6.555,4.835,7.017c3.187,0.462,6.415-1.737,7.61-4.728"/>
	<g>
		<path style="fill:#737374;" d="M110.77,42.321c-0.744,3.391,1.348,6.867,4.731,7.808c3.807,1.058,7.555-1.585,9.085-4.941
			c0.397-0.872-0.895-1.635-1.295-0.757c-1.114,2.444-3.435,4.524-6.279,4.415c-3.063-0.117-5.451-3.14-4.795-6.126
			C112.423,41.779,110.978,41.377,110.77,42.321L110.77,42.321z"/>
	</g>
</g>
<g>
	<path style="fill:#737374;" d="M105.916,78.137c-1.089-3.216-4.455-5.057-6.305-7.904c-0.814-1.253-1.32-2.683-2.104-3.956
		c-0.784-1.272-1.959-2.436-3.439-2.644c-1.48-0.208-3.168,0.944-3.061,2.434c1.285,0.977,3.44,0.366,4.02-1.141"/>
	<g>
		<path style="fill:#737374;" d="M106.639,77.938c-0.942-2.306-2.561-3.881-4.283-5.635c-2.141-2.181-2.925-4.91-4.777-7.223
			c-2.133-2.664-6.813-3.187-7.322,0.989c-0.03,0.247,0.162,0.534,0.371,0.648c1.92,1.041,3.955,0.493,5.046-1.41
			c0.481-0.839-0.815-1.595-1.295-0.757c0.459-0.8,3.278,3.607,3.521,4.092c0.495,0.986,0.997,1.937,1.672,2.815
			c1.826,2.372,4.453,4.025,5.62,6.881C105.553,79.218,107.005,78.832,106.639,77.938L106.639,77.938z"/>
	</g>
</g>
<g>
	<path style="fill:#737374;" d="M140.728,75.46c2.657-3.189,5.314-6.378,7.971-9.567c2.039-2.447,4.119-4.931,6.782-6.678
		c0.476-0.312,1.077-0.606,1.588-0.356c0.81,0.397,0.431,1.778-0.417,2.086c-0.848,0.308-1.775-0.075-2.594-0.452"/>
	<g>
		<path style="fill:#737374;" d="M141.258,75.99c2.657-3.189,5.307-6.384,7.971-9.567c1.025-1.224,2.046-2.453,3.16-3.598
			c0.615-0.632,1.246-1.253,1.927-1.814c0.514-0.383,1.029-0.765,1.543-1.148c-0.546,0.376-1.08,0.346-1.601-0.092
			c-0.89-0.37-1.279,1.08-0.399,1.446c4.748,1.975,5.259-3.724,2.203-3.114c-2.775,0.553-5.536,4.467-7.212,6.443
			c-2.914,3.435-5.769,6.922-8.653,10.383C139.583,75.666,140.639,76.733,141.258,75.99L141.258,75.99z"/>
	</g>
</g>
<g>
	<path style="fill:#737374;" d="M110.059,194.2c-1.727,4.875-3.454,9.749-5.181,14.624c-0.149,0.421-0.324,0.875-0.706,1.108
		c-0.304,0.185-0.68,0.192-1.037,0.193c-1.691,0.005-3.383,0.011-5.074,0.016c-0.518,0.002-1.117,0.043-1.419,0.463
		c-0.341,0.474-0.065,1.189,0.426,1.505s1.112,0.332,1.695,0.307c1.881-0.083,3.746-0.508,5.478-1.248"/>
	<g>
		<path style="fill:#737374;" d="M108.612,193.801c-0.785,2.216-1.57,4.431-2.355,6.647c-0.662,1.868-1.122,4.293-2.119,5.982
			c-1.555,2.633-3.486,1.953-6.076,2.21c-0.859,0.085-1.873,0.164-2.48,0.902c-0.994,1.21-0.534,3.033,0.729,3.861
			c2.214,1.452,6.195,0.031,8.328-0.79c1.783-0.687,1.009-3.588-0.798-2.893c-0.399,0.154-5.816,1.832-5.7,0.883
			c-0.248,0.432-0.495,0.863-0.743,1.295c2.86-1.767,6.845,1.448,8.774-2.318c2.342-4.574,3.614-10.133,5.332-14.982
			C112.151,192.775,109.254,191.991,108.612,193.801L108.612,193.801z"/>
	</g>
</g>
<g>
	<path style="fill:#737374;" d="M117.499,201.045c-1.341,6.609-2.683,13.217-4.024,19.826c-0.103,0.507-0.22,1.039-0.665,1.445
		c-1.633,1.49-5.291-0.12-7.657,0.763c2.902,1.243,7.021,0.842,9.329-0.909"/>
	<g>
		<path style="fill:#737374;" d="M116.052,200.647c-1.006,4.956-2.012,9.913-3.018,14.869c-0.487,2.397-0.273,5.411-3.179,5.948
			c-1.653,0.305-3.382-0.215-5.101,0.169c-1.534,0.343-1.313,2.444,0,2.893c3.555,1.216,7.277,0.953,10.485-1.06
			c1.632-1.024,0.128-3.621-1.514-2.59c-2.55,1.6-5.377,1.714-8.173,0.757c0,0.964,0,1.929,0,2.893
			c3.385-0.757,7.694,1.304,9.268-2.875c1.077-2.859,1.339-6.474,1.947-9.467c0.727-3.58,1.453-7.159,2.18-10.739
			C119.328,199.559,116.437,198.753,116.052,200.647L116.052,200.647z"/>
	</g>
</g>
<g>
	<path style="fill:#EFD876;" d="M213.778,43.105c-3.419,0.554-6.84-1.191-9.405-3.52c-2.565-2.328-4.526-5.239-6.918-7.744
		c-4.439-4.648-10.387-7.831-16.717-8.945c-2.3,7.141,1.831,14.538,4.021,21.713c2.462,8.069,2.47,16.654,2.456,25.091
		c-0.015,9.548-0.031,19.096-0.046,28.644c-0.01,6.445-0.023,12.919-0.997,19.289c-0.871,5.695-2.502,11.251-3.389,16.943
		c-1.126,7.229-1.039,14.589-0.776,21.9c0.147,4.09,0.358,8.234,1.597,12.135c3.247,10.221,14.118,17.443,24.798,16.474
		c1.319-0.12,2.71-0.389,3.678-1.292c1.066-0.995,1.388-2.533,1.643-3.969c2.235-12.616,3.49-25.382,4.742-38.133
		c0.633-6.44,1.266-12.916,0.84-19.373c-0.387-5.863-1.645-11.647-1.949-17.515c-0.263-5.071,0.189-10.149,0.267-15.226
		c0.086-5.558-0.276-11.112-0.638-16.659c-0.464-7.117-0.929-14.234-1.393-21.351c-0.205-3.14-0.42-6.328-1.493-9.286"/>
</g>
<g>
	<path style="fill:#F1C24E;" d="M203.172,66.458"/>
	<g>
		<path style="fill:#737374;" d="M203.172,67.958c1.93,0,1.934-3,0-3C201.242,64.958,201.239,67.958,203.172,67.958L203.172,67.958z
			"/>
	</g>
</g>
<g>
	<path style="fill:#F1C24E;" d="M194.556,64.502"/>
	<g>
		<path style="fill:#737374;" d="M194.556,66.002c1.93,0,1.934-3,0-3C192.625,63.002,192.622,66.002,194.556,66.002L194.556,66.002z
			"/>
	</g>
</g>
<g>
	<g>
		<path style="fill:#737374;" d="M202.415,77.317c-1.667,0.795-3.438,0.988-5.265,1.043c-0.581,0.017-5.064,0.246-4.262-1.204
			c0.935-1.691-1.654-3.206-2.59-1.514c-1.442,2.606,0.532,5.112,3.202,5.591c3.357,0.602,7.362,0.138,10.429-1.325
			C205.671,79.077,204.151,76.489,202.415,77.317L202.415,77.317z"/>
	</g>
</g>
<g>
	<g>
		<path style="fill:#737374;" d="M188.587,91.188c-7.095-4.434-14.502-10.545-12.326-19.872c-0.964-0.266-1.929-0.532-2.893-0.798
			c-0.509,2.32,0.383,5.427-0.902,7.457c0.914,0.119,1.828,0.239,2.742,0.358c-1.315-3.314-3.123-6.04-5.756-8.451
			c-0.707,0.707-1.414,1.414-2.121,2.121c2.052,1.849,3.146,3.534,3.747,6.296c0.25,1.148,0.271,2.288,1.11,3.22
			c1.055,1.171,2.749,1.598,4.057,0.599c1.09-0.832,1.391-2.318,0.597-3.441c-0.655-0.926-1.411-0.729-2.278-1.101
			c-3.233-1.386-4.515-3.249-5.375-6.773c-0.457-1.875-3.351-1.081-2.893,0.798c0.69,2.826,2.797,8.555,6.44,8.798
			c2.063,0.137,1.512-1.527,1.214-3.331c-0.111-0.674-0.268-1.318-0.508-1.957c-0.792-2.115-2.343-3.744-3.991-5.229
			c-1.429-1.288-3.551,0.812-2.121,2.121c2.236,2.047,3.863,4.301,4.984,7.127c0.469,1.181,2.006,1.52,2.742,0.358
			c1.672-2.64,0.568-5.271,1.205-8.173c0.412-1.879-2.453-2.684-2.893-0.798c-2.504,10.734,5.32,18.019,13.705,23.26
			C188.715,94.804,190.222,92.21,188.587,91.188L188.587,91.188z"/>
	</g>
</g>
<g>
	<g>
		<path style="fill:#737374;" d="M217.973,86.855c1.552,1.213,3.101,2.428,4.646,3.65c1.278,1.011,3.757,2.314,4.622,3.681
			c1.534,0.636,1.539,1.181,0.014,1.635c-0.771,0.538-1.541,1.077-2.312,1.615c-1.541,1.077-3.082,2.153-4.623,3.23
			c0.734,0.565,1.469,1.129,2.203,1.694c-0.582-0.052-1.164-0.104-1.746-0.156c0.485-1.87-2.408-2.668-2.893-0.798
			c-1.11,4.278,4.523,7.589,6.761,3.164c1.95-3.855-3.576-7.436-5.015-3.008c-0.388,1.194,1.129,2.444,2.203,1.694
			c2.498-1.745,5.074-3.422,7.513-5.249c1.048-0.785,2.351-1.605,2.253-3.133c-0.109-1.698-2.21-2.79-3.391-3.734
			c-2.693-2.152-5.399-4.286-8.115-6.408C218.591,83.558,216.453,85.666,217.973,86.855L217.973,86.855z"/>
	</g>
</g>
<g>
	<g>
		<path style="fill:#737374;" d="M186.877,174.264c2.933,6.105,0.967,11.975-1.974,17.64c-1.734,3.34-2.42,5.514-6.761,6.132
			c-1.614,0.229-3.008-0.07-4.622,0.365c-1.233,0.333-1.485,2.107-0.358,2.742c3.123,1.759,7.496,3.278,10.302,0.193
			c0.337-0.37,0.579-0.956,0.386-1.459c-0.095-0.246-0.19-0.493-0.284-0.739c-0.686-1.783-3.588-1.009-2.893,0.798
			c0.463,1.204-5.653-1.189-5.996-1.383c-0.119,0.914-0.239,1.828-0.358,2.742c2.938-0.793,6.347,0.603,8.959-1.379
			c2.388-1.811,3.775-5.496,5.027-8.086c3.038-6.288,4.288-12.578,1.164-19.078C188.632,171.01,186.044,172.53,186.877,174.264
			L186.877,174.264z"/>
	</g>
</g>
<g>
	<g>
		<path style="fill:#737374;" d="M180.49,161.007c-1.418,4.216-2.837,8.432-4.255,12.648c-1.625,4.83-2.515,12.874-9.478,9.883
			c-1.023-0.439-2.234,0.058-2.257,1.295c-0.102,5.47,7.554,3.773,10.367,1.905c-0.734-0.565-1.469-1.129-2.203-1.694
			c-1.998,0.911-3.956,0.992-5.873,0.243c-1.868-0.494-2.665,2.399-0.798,2.893c3.332,0.881,8.451,2.057,9.563-2.338
			c0.304-1.203-1.073-2.445-2.203-1.694c-0.591,0.392-5.899,3.158-5.853,0.685c-0.752,0.432-1.505,0.863-2.257,1.295
			c3.923,1.685,7.984,2.859,10.388-1.466c1.647-2.963,2.413-6.99,3.497-10.21c1.418-4.216,2.837-8.432,4.255-12.648
			C183.999,159.97,181.103,159.183,180.49,161.007L180.49,161.007z"/>
	</g>
</g>
</svg>
