<?xml version="1.0" encoding="iso-8859-1"?>
<!-- Generator: Adobe Illustrator 21.1.0, SVG Export Plug-In . SVG Version: 6.00 Build 0)  -->
<svg version="1.1" id="&#x5716;&#x5C64;_1" xmlns="http://www.w3.org/2000/svg" xmlns:xlink="http://www.w3.org/1999/xlink" x="0px"
	 y="0px" viewBox="0 0 237.821 226.923" style="enable-background:new 0 0 237.821 226.923;" xml:space="preserve">
<g>
	<g>
		<g>
			<circle style="fill:#E73672;" cx="115.977" cy="73.459" r="64.609"/>
		</g>
		<g>
			<g>
				<path style="fill:#040000;" d="M102.348,29.67c5.791,0,5.801-9,0-9C96.557,20.67,96.548,29.67,102.348,29.67L102.348,29.67z"/>
			</g>
		</g>
		<g>
			<g>
				<path style="fill:#040000;" d="M132.298,31.353c5.791,0,5.801-9,0-9C126.507,22.353,126.497,31.353,132.298,31.353
					L132.298,31.353z"/>
			</g>
		</g>
		<g>
			<g>
				<path style="fill:#040000;" d="M105.398,36.936c4.988,5.195,12.685,5.904,18.432,1.48c1.508-1.161,0.016-3.769-1.514-2.59
					c-4.702,3.62-10.647,3.311-14.797-1.01C106.18,33.419,104.06,35.543,105.398,36.936L105.398,36.936z"/>
			</g>
		</g>
		<g>
			<path style="fill:#E95B89;" d="M54.859,64.628c17.496,10.767,63.847,31.778,119.244-3.426c2.515-1.598,5.56-0.315,6.91,2.972
				c0.819,1.992,1.328,4.773,0.973,8.617c-1.028,11.133-34.948,23.658-69.897,22.266c-25.155-1.002-53.454-6.454-63.14-18.467
				C44.458,71.02,49.314,61.216,54.859,64.628z"/>
		</g>
		<g>
			<path style="fill:#FFFFFF;" d="M108.219,137.167c0,0,5.739,80.654,9.777,80.654s3.029,1.01,6.057-1.01
				s-7.067-78.743-6.057-78.743S108.219,137.167,108.219,137.167z"/>
		</g>
	</g>
	<g>
		<g>
			<path style="fill:#FFFFFF;" d="M78.803,23.939c-9.162,5.213-14.695,14.14-15.964,24.504c-0.702,5.736,8.304,5.685,9,0
				c0.874-7.143,5.337-13.223,11.506-16.733C88.379,28.847,83.85,21.068,78.803,23.939L78.803,23.939z"/>
		</g>
	</g>
	<g>
		<g>
			<path style="fill:#FFFFFF;" d="M63.588,62.921c5.791,0,5.801-9,0-9C57.796,53.921,57.787,62.921,63.588,62.921L63.588,62.921z"/>
		</g>
	</g>
	<g>
		<g>
			<path style="fill:#FFFFFF;" d="M60.331,80.952c9.425,4.004,19.118,6.459,29.321,7.365c3.845,0.341,3.822-5.661,0-6
				c-9.076-0.805-17.903-2.981-26.293-6.546C59.846,74.278,56.785,79.445,60.331,80.952L60.331,80.952z"/>
		</g>
	</g>
	<g>
		<g>
			<path style="fill:#737374;" d="M176.192,103.799c10.441-4.767,19.386-11.841,26.425-20.908c1.17-1.507-0.938-3.645-2.121-2.121
				c-6.894,8.881-15.589,15.769-25.818,20.439C172.924,102.009,174.447,104.596,176.192,103.799L176.192,103.799z"/>
		</g>
	</g>
	<g>
		<g>
			<path style="fill:#737374;" d="M60.41,111.151c-9.873,2.332-17.596,10.086-19.88,19.973c-0.434,1.879,2.458,2.681,2.893,0.798
				c2.06-8.916,8.878-15.774,17.785-17.877C63.085,113.601,62.29,110.707,60.41,111.151L60.41,111.151z"/>
		</g>
	</g>
</g>
</svg>
