<?xml version="1.0" encoding="iso-8859-1"?>
<!-- Generator: Adobe Illustrator 21.1.0, SVG Export Plug-In . SVG Version: 6.00 Build 0)  -->
<svg version="1.1" id="&#x5716;&#x5C64;_1" xmlns="http://www.w3.org/2000/svg" xmlns:xlink="http://www.w3.org/1999/xlink" x="0px"
	 y="0px" viewBox="0 0 237.821 226.923" style="enable-background:new 0 0 237.821 226.923;" xml:space="preserve">
<g>
	<path style="fill:#B5B5B5;" d="M202.387,15.09L202.387,15.09c-1.667-0.323-3.296,0.776-3.619,2.444l-18.876,97.338
		c-0.323,1.667,0.776,3.296,2.444,3.619h0c1.667,0.323,3.296-0.776,3.619-2.444l18.876-97.338
		C205.154,17.042,204.054,15.413,202.387,15.09z"/>
</g>
<g>
	<path style="fill:#B5B5B5;" d="M224.676,49.066l-29.096-2.469c-7.259-1.774-11.747-9.165-9.974-16.424l1.649-6.749
		c1.754-7.177,9.06-11.614,16.237-9.86l27.098,11.267c5.746,2.389,4.694,7.582,3.217,13.627l0,0
		C232.331,44.5,230.874,49.592,224.676,49.066z"/>
</g>
<g>
	<g>
		<path style="fill:#FCEECF;" d="M27.885,96.049V69.801c0-37.364,30.571-64.23,67.935-64.23h0c37.364,0,67.935,26.865,67.935,64.23
			v28.718c0,0,32.115-5.25,30.88,1.544c-2.1,11.549-31.253,9.438-30.262,17.91l-0.618,4.323"/>
	</g>
	<g>
		<g>
			<path style="fill:#FCEECF;" d="M27.92,96.049c0,0-28.444-7.102-27.209,1.544c1.873,13.111,27.174,6.176,27.174,12.352v3.397
				v7.411c0,0,27.998,12.969,67.935,12.969s67.935-11.425,67.935-11.425"/>
		</g>
	</g>
</g>
<g>
	<g>
		<polygon style="fill:#966525;" points="109.407,200.923 129.265,195.523 136.581,207.717 136.581,216.043 112.186,221.921 
			79.763,221.921 55.059,215.161 55.059,207.717 62.375,195.523 82.844,200.953 		"/>
	</g>
	<g>
		
			<line style="fill:#966525;stroke:#737374;stroke-width:0.5;stroke-miterlimit:10;" x1="79.763" y1="214.51" x2="82.844" y2="200.953"/>
		
			<line style="fill:#966525;stroke:#737374;stroke-width:0.5;stroke-miterlimit:10;" x1="112.186" y1="214.51" x2="79.763" y2="214.51"/>
		
			<line style="fill:#966525;stroke:#737374;stroke-width:0.5;stroke-miterlimit:10;" x1="109.407" y1="200.923" x2="112.186" y2="214.51"/>
		
			<line style="fill:#966525;stroke:#737374;stroke-width:0.5;stroke-miterlimit:10;" x1="112.186" y1="221.921" x2="112.186" y2="214.51"/>
		
			<line style="fill:#966525;stroke:#737374;stroke-width:0.5;stroke-miterlimit:10;" x1="79.763" y1="214.51" x2="79.763" y2="221.921"/>
		
			<line style="fill:#966525;stroke:#737374;stroke-width:0.5;stroke-miterlimit:10;" x1="79.763" y1="214.51" x2="55.059" y2="207.717"/>
		
			<line style="fill:#966525;stroke:#737374;stroke-width:0.5;stroke-miterlimit:10;" x1="112.186" y1="214.51" x2="136.581" y2="207.717"/>
		<g>
			<path style="fill:#966525;" d="M112.186,214.51"/>
		</g>
	</g>
</g>
<g style="opacity:0.92;">
	<path style="fill:#985A24;" d="M163.91,126.311c1.853,0.618,1.544,2.779,1.544,2.779l0,21.979
		c0,27.994-31.266,50.897-69.479,50.897h0c-38.214,0-69.479-22.904-69.479-50.897v-21.516c0,0-0.308-3.242,1.544-3.859
		c0,0,33.713,16.675,67.781,16.675S163.91,126.311,163.91,126.311z"/>
</g>
<g>
	<path style="fill:#AF7420;" d="M27.885,119.826v5.867c0,3.923,30.33,16.675,67.935,16.675s67.935-12.135,67.935-16.057v-6.176
		c0,3.923-30.33,13.587-67.935,13.587s-67.935-10.282-67.935-14.205"/>
</g>
<g>
	<g>
		<path style="fill:#737374;" d="M70.204,55.994c3.97,6.247,13.507,3.316,16.901-2.016c0.936-1.47-1.143-2.963-2.356-1.818
			c-7.95,7.509,5.28,14.822,12.404,13.085c1.875-0.457,1.081-3.351-0.798-2.893c-3.492,0.852-15.091-2.776-9.485-8.071
			c-0.785-0.606-1.571-1.212-2.356-1.818c-2.041,3.206-9.061,6.201-11.72,2.016C71.762,52.855,69.165,54.358,70.204,55.994
			L70.204,55.994z"/>
	</g>
</g>
<g>
	<g>
		<path style="fill:#737374;" d="M73.072,45.907c9.652,0,9.668-15,0-15C63.42,30.907,63.404,45.907,73.072,45.907L73.072,45.907z"/>
	</g>
</g>
<g>
	<g>
		<path style="fill:#737374;" d="M111.363,57.024c9.652,0,9.668-15,0-15C101.711,42.024,101.695,57.024,111.363,57.024
			L111.363,57.024z"/>
	</g>
</g>
</svg>
