<?xml version="1.0" encoding="iso-8859-1"?>
<!-- Generator: Adobe Illustrator 21.1.0, SVG Export Plug-In . SVG Version: 6.00 Build 0)  -->
<svg version="1.1" id="&#x5716;&#x5C64;_1" xmlns="http://www.w3.org/2000/svg" xmlns:xlink="http://www.w3.org/1999/xlink" x="0px"
	 y="0px" viewBox="0 0 237.821 226.923" style="enable-background:new 0 0 237.821 226.923;" xml:space="preserve">
<g>
	<g>
		<g>
			<g style="opacity:0.92;">
				<circle style="fill:#CCCCCC;" cx="125.939" cy="97.137" r="92.23"/>
				<circle style="fill:#FFFFFF;" cx="113.713" cy="99.642" r="92.23"/>
				<path style="fill:#DD5957;" d="M188.874,29.724c0,0-9.102-8.754-19.405-13.918c0,0-4.857,0.893-6.934,5.573
					c0,0-2.126,7.367-4.713,14.131l20.501-1.685C178.323,33.825,183.966,29.782,188.874,29.724z"/>
				<path style="fill:#DD5957;" d="M196.423,58.786c0,0,8.493-6.149,12.215-2.527c3.722,3.622,7.303,20.26,7.796,22.982
					c0,0-5.574-3.364-12.397,1.657c0,0-17.939-2.067-18.461-2.813S195.515,59.393,196.423,58.786z"/>
				<path style="fill:#DD5957;" d="M205.172,111.622c0,0,10.563-0.805,11.201,3.719c0,0-1.228,10.518-9.97,27.179
					c0,0-3.617-3.853-9.307-3.408c0,0-17.717-18.587-15.2-21.435C187.963,110.813,202.386,113.226,205.172,111.622z"/>
				<path style="fill:#DD5957;" d="M155.037,152.991c0,0,1.574,26.545,2.826,27.647c1.252,1.102,1.715,0.608,1.732,2.396
					c0,0,12.166-4.789,19.413-10.455c0,0-4.624-2.503-5.818-2.279s-15.593-16.339-17.831-17.309"/>
				<path style="fill:#DD5957;" d="M101.563,8.206c0,0,9.896,20.639,12.151,22.057c2.254,1.418,11.155-19.921,12.226-22.047
					c1.07-2.126-0.936-3.36,1.37-3.298C129.615,4.98,113.07,4.263,101.563,8.206z"/>
				<path style="fill:#DD5957;" d="M59.744,24.845c0,0-10.71,7.093-14.434,12.932S72.572,47,74.661,49.238
					C76.75,51.476,61.489,27.411,59.744,24.845z"/>
				<path style="fill:#DD5957;" d="M31.103,58.595c0,0-7.656,13.975-7.714,22.304c-0.058,8.328,32.877-0.995,33.673-2.017
					S37.88,62.381,31.103,58.595z"/>
				<path style="fill:#DD5957;" d="M25.086,125.247c0,0,3.412,15.471,7.593,18.474s22.815-19.078,24.406-20.272
					C58.677,122.255,28.233,124.462,25.086,125.247z"/>
				<path style="fill:#DD5957;" d="M62.155,176.126c0,0,13.475,9.395,19.158,9.891c0,0,2.5-19.001,2.898-23.975
					S65.366,174.493,62.155,176.126z"/>
			</g>
			<g>
				<g>
					<path style="fill:#DD5957;" d="M84.434,56.15c5.791,0,5.801-9,0-9C78.643,47.15,78.634,56.15,84.434,56.15L84.434,56.15z"/>
				</g>
			</g>
			<g>
				<g>
					<path style="fill:#DD5957;" d="M139.493,64.581c5.791,0,5.801-9,0-9C133.702,55.581,133.692,64.581,139.493,64.581
						L139.493,64.581z"/>
				</g>
			</g>
		</g>
		<g>
			<g>
				<path style="fill:#737374;" d="M21.69,105.331c-5.875-0.605-12.074,2.577-16.199,6.671c-4.133,4.102-1.941,8.837,1.277,12.879
					c3.891,4.887,7.426,4.729,12.937,2.548c7.251-2.87,14.009-6.655,20.32-11.229c1.548-1.122,0.053-3.726-1.514-2.59
					c-6.402,4.64-14.754,10.404-22.6,12.041c-6.389,1.333-12.119-7.343-7.325-12.284c3.245-3.345,8.528-5.506,13.105-5.035
					C23.609,108.528,23.595,105.527,21.69,105.331L21.69,105.331z"/>
			</g>
		</g>
		<g>
			<g>
				<path style="fill:#737374;" d="M207.474,122.659c2.882,6.204,5.499,12.518,7.78,18.968c1.01,2.856,1.958,5.733,2.844,8.629
					c0.882,2.886,2.604,6.598,2.696,9.624c0.061,2.005,0.437,2.662-2.345,2.31c-1.578-0.2-3.444-1.325-4.891-1.977
					c-2.459-1.108-4.86-2.356-7.181-3.728c-5.491-3.247-10.447-7.197-14.961-11.695c-1.369-1.365-3.491,0.756-2.121,2.121
					c5.456,5.437,11.584,10.121,18.391,13.749c3.225,1.719,12.278,7.627,15.717,4.099c1.576-1.617,0.749-3.741,0.284-5.676
					c-1.059-4.412-2.388-8.777-3.789-13.09c-2.755-8.485-6.076-16.759-9.834-24.847
					C209.252,119.396,206.665,120.918,207.474,122.659L207.474,122.659z"/>
			</g>
		</g>
		<g>
			<g>
				<path style="fill:#737374;" d="M69.079,181.137c3.184,13.389-1.845,27.507,3.502,40.532c0.723,1.762,3.627,0.99,2.893-0.798
					c-5.313-12.94-0.324-27.165-3.502-40.532C71.526,178.462,68.632,179.257,69.079,181.137L69.079,181.137z"/>
			</g>
		</g>
		<g>
			<g>
				<path style="fill:#737374;" d="M143.197,186.797c0.517,11.789-0.009,23.527-1.579,35.223c-0.256,1.907,2.747,1.888,3,0
					c1.57-11.696,2.096-23.434,1.579-35.223C146.112,184.874,143.112,184.863,143.197,186.797L143.197,186.797z"/>
			</g>
		</g>
	</g>
	<g>
		<g>
			<path style="fill:#737374;" d="M95.299,75.362c4.08,6.471,12.599,8.668,19.292,4.945c1.687-0.939,0.176-3.531-1.514-2.59
				c-5.244,2.917-11.982,1.214-15.188-3.869C96.863,72.219,94.266,73.723,95.299,75.362L95.299,75.362z"/>
		</g>
	</g>
</g>
</svg>
