<?xml version="1.0" encoding="iso-8859-1"?>
<!-- Generator: Adobe Illustrator 21.1.0, SVG Export Plug-In . SVG Version: 6.00 Build 0)  -->
<svg version="1.1" xmlns="http://www.w3.org/2000/svg" xmlns:xlink="http://www.w3.org/1999/xlink" x="0px" y="0px"
	 viewBox="0 0 800 800" style="enable-background:new 0 0 800 800;" xml:space="preserve">
<g id="background">
	<rect x="0" y="0" style="fill:#5799B9;" width="800" height="800"/>
</g>
<g id="objects">
	<g>
		<path style="fill:#4D87A4;" d="M238.025,142.872c-4.189,0-8.141,0.975-11.686,2.666c-1.388-22.638-20.178-40.572-43.166-40.572
			c-5.537,0-10.826,1.052-15.692,2.948c-7.182-18.177-24.896-31.043-45.626-31.043c-26.494,0-48.07,21.007-49.009,47.272
			c-0.015,0-0.03-0.001-0.045-0.001c-20.196,0-36.568,16.372-36.568,36.568s16.372,36.568,36.568,36.568h165.225
			c15.024,0,27.203-12.179,27.203-27.203S253.048,142.872,238.025,142.872z M145.845,170.075h-2.59
			c0.675-0.328,1.343-0.668,2.001-1.026C145.445,169.395,145.645,169.735,145.845,170.075z"/>
		<path style="fill:#FFFFFF;" d="M228.083,133.915c-4.189,0-8.141,0.975-11.686,2.666c-1.388-22.638-20.178-40.572-43.166-40.572
			c-5.537,0-10.826,1.052-15.692,2.948c-7.182-18.177-24.896-31.043-45.627-31.043c-26.494,0-48.07,21.007-49.01,47.272
			c-0.015,0-0.03-0.001-0.045-0.001c-20.196,0-36.568,16.372-36.568,36.568s16.372,36.568,36.568,36.568h165.225
			c15.024,0,27.203-12.179,27.203-27.203S243.106,133.915,228.083,133.915z M135.903,161.119h-2.59
			c0.675-0.328,1.343-0.668,2.001-1.026C135.503,160.439,135.703,160.779,135.903,161.119z"/>
	</g>
	<g>
		<path style="fill:#4D87A4;" d="M502.62,147.39c0.04-0.669,0.066-1.342,0.066-2.021c0-18.555-15.042-33.596-33.596-33.596
			c-3.521,0-6.915,0.544-10.104,1.549c0.001-0.118,0.009-0.233,0.009-0.351c0-22.963-18.615-41.578-41.579-41.578
			c-18.301,0-33.828,11.829-39.384,28.254c-4.831-2.897-10.483-4.565-16.526-4.565c-17.777,0-32.188,14.411-32.188,32.188
			c0,2.043,0.199,4.038,0.563,5.975c-15.567,2.259-27.527,15.654-27.527,31.848c0,17.777,14.411,32.188,32.188,32.188h159.904
			c14.146,0,25.614-11.468,25.614-25.614C520.059,160.377,512.756,150.803,502.62,147.39z"/>
		<path style="fill:#FFFFFF;" d="M492.678,138.434c0.04-0.669,0.066-1.342,0.066-2.021c0-18.555-15.042-33.596-33.596-33.596
			c-3.521,0-6.915,0.544-10.104,1.549c0.001-0.118,0.009-0.233,0.009-0.351c0-22.963-18.615-41.578-41.579-41.578
			c-18.301,0-33.828,11.829-39.384,28.253c-4.831-2.897-10.483-4.565-16.526-4.565c-17.777,0-32.188,14.411-32.188,32.188
			c0,2.043,0.199,4.038,0.563,5.975c-15.567,2.259-27.527,15.654-27.527,31.847c0,17.777,14.411,32.188,32.188,32.188h159.904
			c14.146,0,25.614-11.468,25.614-25.614C510.117,151.421,502.814,141.847,492.678,138.434z"/>
	</g>
	<g>
		<path style="fill:#4D87A4;" d="M779.414,143.792c0.026-0.702,0.053-1.403,0.053-2.111v-0.562l-0.435,0.04
			c-3.898-22.539-23.533-39.686-47.185-39.686c-3.276,0-6.475,0.331-9.566,0.957c-10.324-15.585-28.01-25.869-48.105-25.869
			c-30.282,0-55.096,23.345-57.468,53.017c-5.246-2.962-11.301-4.66-17.755-4.66c-19.981,0-36.179,16.198-36.179,36.179v0.362
			c0,19.781,16.036,35.817,35.817,35.817h125.28c1.376,0,2.736-0.067,4.088-0.166c1.283,0.103,2.578,0.166,3.888,0.166
			c26.456,0,47.902-21.446,47.902-47.902C779.749,147.486,779.627,145.625,779.414,143.792z"/>
		<path style="fill:#FFFFFF;" d="M769.472,134.836c0.026-0.701,0.053-1.403,0.053-2.111v-0.562l-0.435,0.04
			c-3.898-22.539-23.533-39.686-47.185-39.686c-3.276,0-6.475,0.331-9.566,0.957c-10.324-15.585-28.01-25.869-48.105-25.869
			c-30.282,0-55.096,23.345-57.468,53.017c-5.246-2.962-11.301-4.66-17.755-4.66c-19.981,0-36.179,16.198-36.179,36.179v0.362
			c0,19.781,16.036,35.817,35.817,35.817h125.28c1.376,0,2.736-0.067,4.088-0.166c1.283,0.103,2.578,0.166,3.888,0.166
			c26.456,0,47.902-21.446,47.902-47.902C769.807,138.53,769.685,136.669,769.472,134.836z"/>
	</g>
	<g>
		<path style="fill:#4D87A4;" d="M245.547,312.905c-0.966,0-1.915,0.069-2.853,0.176c-3.422-16.675-18.179-29.216-35.866-29.216
			c-2.286,0-4.519,0.22-6.689,0.621c-8.707-18.989-27.87-32.185-50.128-32.185c-24.189,0-44.725,15.585-52.153,37.256
			c-3.067-0.962-6.329-1.483-9.714-1.483c-17.897,0-32.406,14.509-32.406,32.406c0,0.238,0.013,0.473,0.018,0.71
			c-1.236-0.228-2.504-0.363-3.806-0.363c-11.526,0-20.87,9.344-20.87,20.87s9.344,20.87,20.87,20.87h193.596
			c13.714,0,24.831-11.117,24.831-24.831C270.378,324.022,259.261,312.905,245.547,312.905z"/>
		<path style="fill:#FFFFFF;" d="M235.605,303.949c-0.966,0-1.915,0.069-2.853,0.176c-3.422-16.675-18.179-29.216-35.866-29.216
			c-2.286,0-4.519,0.22-6.689,0.621c-8.707-18.989-27.87-32.185-50.128-32.185c-24.189,0-44.726,15.585-52.153,37.256
			c-3.067-0.962-6.329-1.483-9.714-1.483c-17.898,0-32.406,14.509-32.406,32.406c0,0.238,0.013,0.473,0.018,0.71
			c-1.236-0.228-2.504-0.363-3.806-0.363c-11.526,0-20.87,9.344-20.87,20.87s9.344,20.87,20.87,20.87h193.596
			c13.714,0,24.831-11.117,24.831-24.831C260.436,315.066,249.319,303.949,235.605,303.949z"/>
	</g>
	<g>
		<path style="fill:#4D87A4;" d="M494.934,292.315c-1.567,0-3.107,0.113-4.621,0.312c-5.456-18.414-22.493-31.852-42.677-31.852
			c-18.367,0-34.132,11.125-40.934,27.003c-4.014-1.597-8.388-2.484-12.972-2.484c-14.125,0-26.296,8.342-31.873,20.365
			c-3.695-1.739-7.82-2.715-12.175-2.715c-12.211,0-22.631,7.646-26.749,18.409c-2.739-1.257-5.775-1.976-8.985-1.976
			c-11.927,0-21.595,9.669-21.595,21.595c0,11.927,9.669,21.595,21.595,21.595h180.986c19.399,0,35.126-15.726,35.126-35.126
			C530.06,308.042,514.334,292.315,494.934,292.315z"/>
		<path style="fill:#FFFFFF;" d="M484.992,283.359c-1.567,0-3.107,0.113-4.621,0.312c-5.456-18.414-22.493-31.852-42.677-31.852
			c-18.367,0-34.132,11.125-40.934,27.003c-4.014-1.597-8.388-2.484-12.972-2.484c-14.125,0-26.296,8.342-31.873,20.365
			c-3.695-1.739-7.82-2.715-12.175-2.715c-12.211,0-22.631,7.646-26.749,18.409c-2.739-1.257-5.775-1.976-8.985-1.976
			c-11.927,0-21.595,9.669-21.595,21.595c0,11.927,9.669,21.595,21.595,21.595h180.986c19.399,0,35.126-15.726,35.126-35.126
			C520.118,299.085,504.392,283.359,484.992,283.359z"/>
	</g>
	<g>
		<path style="fill:#4D87A4;" d="M755.983,291.442c-5.944,0-11.543,1.466-16.467,4.044c-5.651-10.453-16.707-17.555-29.424-17.555
			c-4.815,0-9.388,1.026-13.524,2.859c-6.356-19.517-24.689-33.627-46.328-33.627c-23.971,0-43.883,17.315-47.95,40.116
			c-3.955-1.363-8.195-2.114-12.613-2.114c-21.373,0-38.7,17.327-38.7,38.7c0,21.373,17.327,38.7,38.7,38.7h166.306
			c19.641,0,35.562-15.922,35.562-35.562C791.546,307.364,775.624,291.442,755.983,291.442z"/>
		<path style="fill:#FFFFFF;" d="M746.041,282.486c-5.944,0-11.543,1.466-16.467,4.044c-5.651-10.453-16.707-17.555-29.424-17.555
			c-4.815,0-9.388,1.026-13.524,2.859c-6.356-19.517-24.689-33.627-46.328-33.627c-23.971,0-43.884,17.315-47.95,40.116
			c-3.955-1.363-8.195-2.114-12.613-2.114c-21.373,0-38.7,17.327-38.7,38.7c0,21.373,17.327,38.7,38.7,38.7h166.306
			c19.641,0,35.562-15.922,35.562-35.562C781.604,298.408,765.682,282.486,746.041,282.486z"/>
	</g>
	<g>
		<path style="fill:#4D87A4;" d="M255.294,507.845c-2.508-19.358-19.046-34.315-39.087-34.315c-0.125,0-0.248,0.008-0.372,0.009
			c-10.089-21.274-31.756-35.99-56.867-35.99c-21.031,0-39.637,10.329-51.06,26.181c-2.553-0.453-5.176-0.703-7.86-0.703
			c-19.045,0-35.297,11.921-41.727,28.704c-1.407-0.22-2.849-0.337-4.318-0.337c-15.306,0-27.713,12.408-27.713,27.713
			c0,15.306,12.408,27.713,27.713,27.713c6.228,0,11.975-2.055,16.602-5.522c7.863,6.898,18.161,11.088,29.443,11.088
			c6.518,0,12.703-1.407,18.286-3.916c10.963,9.288,25.139,14.9,40.633,14.9c15.404,0,29.508-5.545,40.445-14.737
			c5.096,2.403,10.786,3.753,16.794,3.753c7.837,0,15.134-2.296,21.272-6.238c4.004,3.818,9.413,6.177,15.382,6.177
			c12.321,0,22.309-9.988,22.309-22.309C275.17,518.518,266.469,509.059,255.294,507.845z"/>
		<path style="fill:#FFFFFF;" d="M245.352,498.889c-2.508-19.359-19.046-34.316-39.087-34.316c-0.125,0-0.248,0.008-0.372,0.009
			c-10.089-21.274-31.756-35.99-56.867-35.99c-21.031,0-39.637,10.33-51.06,26.181c-2.553-0.453-5.176-0.703-7.86-0.703
			c-19.045,0-35.297,11.921-41.727,28.704c-1.407-0.22-2.849-0.337-4.318-0.337c-15.306,0-27.713,12.408-27.713,27.713
			c0,15.306,12.408,27.713,27.713,27.713c6.228,0,11.975-2.055,16.602-5.522c7.863,6.898,18.161,11.088,29.443,11.088
			c6.518,0,12.703-1.407,18.286-3.916c10.963,9.288,25.139,14.9,40.633,14.9c15.404,0,29.508-5.545,40.445-14.737
			c5.096,2.403,10.786,3.752,16.794,3.752c7.837,0,15.134-2.296,21.272-6.238c4.004,3.818,9.413,6.177,15.382,6.177
			c12.321,0,22.309-9.988,22.309-22.309C265.228,509.562,256.527,500.102,245.352,498.889z"/>
	</g>
	<g>
		<path style="fill:#4D87A4;" d="M499.5,462.148c-6.607-1.015-13.08-0.353-19.002,1.651c-2.464-17.085-15.807-31.292-33.753-34.051
			c-10.341-1.589-20.366,0.907-28.438,6.283c-4.395-4.428-10.194-7.541-16.834-8.561c-11.876-1.825-23.197,3.533-29.551,12.833
			c-0.915-0.197-1.839-0.375-2.776-0.52c-23.488-3.61-45.573,10.846-52.161,33.001c-13.82,0.737-25.703,11.06-27.889,25.28
			c-2.505,16.298,8.676,31.54,24.974,34.045c1.258,0.193,2.509,0.296,3.749,0.33c-0.109,0.521-0.206,1.048-0.287,1.58
			c-2.505,16.298,8.676,31.54,24.974,34.045c12.225,1.879,23.855-3.943,29.962-13.847c5.951,9.922,16.107,17.22,28.435,19.115
			c11.761,1.808,23.113-1.671,31.647-8.66c2.176,0.733,4.439,1.301,6.786,1.662c19.105,2.936,37.128-8.071,43.745-25.43
			c1.363,0.359,2.756,0.652,4.18,0.871c21.988,3.38,42.553-11.706,45.932-33.695C536.574,486.092,521.488,465.527,499.5,462.148z"/>
		<path style="fill:#FFFFFF;" d="M489.558,453.191c-6.607-1.015-13.08-0.353-19.002,1.651
			c-2.464-17.085-15.807-31.292-33.753-34.051c-10.341-1.589-20.366,0.907-28.438,6.283c-4.395-4.428-10.194-7.541-16.834-8.561
			c-11.876-1.825-23.197,3.533-29.551,12.833c-0.915-0.197-1.839-0.375-2.776-0.52c-23.488-3.61-45.573,10.846-52.161,33.001
			c-13.82,0.737-25.703,11.06-27.889,25.28c-2.505,16.298,8.677,31.54,24.974,34.045c1.258,0.193,2.509,0.296,3.749,0.33
			c-0.109,0.521-0.206,1.048-0.287,1.58c-2.505,16.297,8.677,31.54,24.974,34.045c12.224,1.879,23.855-3.943,29.962-13.848
			c5.951,9.922,16.107,17.22,28.435,19.115c11.761,1.808,23.113-1.671,31.647-8.66c2.176,0.733,4.439,1.301,6.786,1.662
			c19.105,2.936,37.128-8.071,43.745-25.43c1.363,0.359,2.756,0.653,4.18,0.871c21.988,3.38,42.553-11.706,45.933-33.695
			C526.632,477.135,511.546,456.571,489.558,453.191z"/>
	</g>
	<g>
		<path style="fill:#4D87A4;" d="M770.413,492.153c-0.826-19.512-16.9-35.078-36.615-35.078c-5.665,0-11.03,1.287-15.819,3.582
			c-4.86-18.44-21.646-32.04-41.613-32.04c-14.276,0-26.921,6.956-34.75,17.658c-5.786-2.893-12.309-4.531-19.218-4.531
			c-23.768,0-43.036,19.268-43.036,43.036c0,0.007,0,0.014,0,0.021c-1.135-0.13-2.287-0.204-3.457-0.204
			c-16.619,0-30.091,13.472-30.091,30.091c0,16.619,13.472,30.091,30.091,30.091c4.065,0,7.94-0.811,11.477-2.272
			c4.664,10.579,15.236,17.967,27.54,17.967c7.177,0,13.764-2.516,18.935-6.71c10.526,11.396,25.589,18.538,42.325,18.538
			c13.482,0,25.871-4.643,35.686-12.401c4.498,2.677,9.75,4.219,15.364,4.219c11.167,0,20.907-6.088,26.099-15.122
			c4.007,1.975,8.514,3.089,13.283,3.089c16.619,0,30.091-13.472,30.091-30.091C796.708,506.665,785.238,494.021,770.413,492.153z"
			/>
		<path style="fill:#FFFFFF;" d="M760.471,483.197c-0.826-19.512-16.9-35.078-36.615-35.078c-5.666,0-11.03,1.287-15.819,3.582
			c-4.86-18.44-21.646-32.04-41.612-32.04c-14.276,0-26.921,6.956-34.75,17.658c-5.786-2.893-12.309-4.531-19.218-4.531
			c-23.768,0-43.036,19.268-43.036,43.036c0,0.007,0,0.014,0,0.021c-1.135-0.13-2.287-0.204-3.457-0.204
			c-16.619,0-30.091,13.472-30.091,30.091c0,16.619,13.472,30.091,30.091,30.091c4.065,0,7.94-0.811,11.477-2.272
			c4.664,10.579,15.236,17.967,27.54,17.967c7.177,0,13.764-2.517,18.935-6.71c10.526,11.396,25.589,18.538,42.325,18.538
			c13.482,0,25.872-4.643,35.686-12.401c4.498,2.677,9.75,4.219,15.364,4.219c11.167,0,20.907-6.088,26.099-15.122
			c4.007,1.975,8.514,3.089,13.283,3.089c16.619,0,30.091-13.472,30.091-30.091C786.766,497.709,775.296,485.064,760.471,483.197z"
			/>
	</g>
	<g>
		<path style="fill:#4D87A4;" d="M240.046,681.333c-5.714,0-11.085,1.461-15.765,4.027c-7.638-11.525-20.719-19.129-35.582-19.129
			c-3.412,0-6.725,0.412-9.905,1.168c-3.51-27.696-27.14-49.117-55.789-49.117c-31.069,0-56.255,25.186-56.255,56.255
			c0,0.057,0.004,0.112,0.004,0.169c-1.119-0.11-2.254-0.169-3.402-0.169c-18.975,0-34.357,15.382-34.357,34.357h243.469
			C269.935,693.268,256.387,681.333,240.046,681.333z"/>
		<path style="fill:#FFFFFF;" d="M230.104,672.377c-5.714,0-11.085,1.461-15.765,4.027c-7.638-11.525-20.72-19.129-35.582-19.129
			c-3.412,0-6.725,0.412-9.905,1.169c-3.51-27.696-27.139-49.117-55.789-49.117c-31.069,0-56.255,25.186-56.255,56.255
			c0,0.057,0.004,0.112,0.004,0.169c-1.119-0.11-2.254-0.169-3.402-0.169c-18.975,0-34.357,15.382-34.357,34.357h243.469
			C259.993,684.312,246.445,672.377,230.104,672.377z"/>
	</g>
	<g>
		<path style="fill:#4D87A4;" d="M521.458,708.895c1.322-2.957,2.064-6.231,2.064-9.679c0-13.113-10.63-23.743-23.742-23.743
			c-4.305,0-8.339,1.152-11.82,3.155c-2.474-15.927-16.246-28.117-32.866-28.117c-3.218,0-6.326,0.466-9.27,1.319
			c-5.671-17.501-22.097-30.16-41.488-30.16c-20.58,0-37.819,14.259-42.406,33.434c-0.932-0.219-1.9-0.347-2.899-0.347
			c-6.989,0-12.654,5.666-12.654,12.655c0,1.098,0.154,2.157,0.417,3.173c-9.439,1.088-17.488,6.73-21.893,14.678
			c-0.746-0.071-1.502-0.11-2.266-0.11c-13.113,0-23.742,10.63-23.742,23.742H521.458z"/>
		<path style="fill:#FFFFFF;" d="M511.516,699.939c1.322-2.957,2.064-6.231,2.064-9.679c0-13.113-10.63-23.742-23.742-23.742
			c-4.305,0-8.339,1.152-11.82,3.155c-2.474-15.927-16.246-28.117-32.866-28.117c-3.218,0-6.326,0.466-9.27,1.319
			c-5.671-17.501-22.097-30.16-41.488-30.16c-20.58,0-37.819,14.259-42.406,33.434c-0.932-0.219-1.9-0.347-2.899-0.347
			c-6.989,0-12.654,5.666-12.654,12.654c0,1.098,0.154,2.157,0.417,3.173c-9.439,1.088-17.488,6.73-21.893,14.678
			c-0.746-0.071-1.502-0.11-2.267-0.11c-13.113,0-23.742,10.63-23.742,23.742H511.516z"/>
	</g>
	<g>
		<path style="fill:#4D87A4;" d="M784.297,708.895c0.001-0.108,0.008-0.214,0.008-0.322c0-15.305-12.407-27.712-27.712-27.712
			c-6.565,0-12.593,2.288-17.341,6.103c-6.276-12.632-19.303-21.318-34.365-21.318c-1.518,0-3.012,0.098-4.484,0.269
			c-4.251-9.233-13.579-15.646-24.411-15.646c-3.909,0-7.619,0.842-10.969,2.343c-7.326-14.612-22.433-24.647-39.891-24.647
			c-24.637,0-44.609,19.972-44.609,44.609c0,2.884,0.284,5.7,0.806,8.431c-13.155,2.474-23.111,14.016-23.111,27.89H784.297z"/>
		<path style="fill:#FFFFFF;" d="M774.355,699.939c0.001-0.108,0.008-0.214,0.008-0.322c0-15.305-12.407-27.711-27.712-27.711
			c-6.565,0-12.593,2.288-17.341,6.103c-6.276-12.632-19.303-21.318-34.365-21.318c-1.518,0-3.012,0.098-4.484,0.269
			c-4.251-9.233-13.579-15.646-24.41-15.646c-3.909,0-7.619,0.842-10.97,2.343c-7.326-14.612-22.433-24.647-39.891-24.647
			c-24.637,0-44.609,19.972-44.609,44.609c0,2.884,0.284,5.7,0.806,8.431c-13.155,2.474-23.111,14.016-23.111,27.89H774.355z"/>
	</g>
</g>
<g id="designed_by_freepik">
	<g>
		<g>
			<path style="fill:#FFFFFF;" d="M286.024,774.286v-0.257c-0.349,0.398-0.692,0.724-1.031,0.973
				c-0.338,0.251-0.706,0.441-1.102,0.57c-0.396,0.132-0.827,0.195-1.296,0.195c-0.621,0-1.196-0.131-1.725-0.393
				c-0.528-0.263-0.986-0.639-1.372-1.126c-0.387-0.487-0.68-1.06-0.879-1.719c-0.199-0.659-0.299-1.371-0.299-2.137
				c0-1.621,0.396-2.886,1.188-3.791c0.792-0.904,1.833-1.357,3.125-1.357c0.747,0,1.377,0.129,1.89,0.384
				c0.513,0.257,1.013,0.652,1.501,1.183v-3.827c0-0.532,0.105-0.934,0.318-1.206c0.211-0.273,0.514-0.408,0.907-0.408
				c0.393,0,0.694,0.125,0.907,0.375c0.212,0.251,0.318,0.618,0.318,1.106v11.436c0,0.494-0.113,0.864-0.342,1.111
				c-0.228,0.246-0.522,0.37-0.883,0.37c-0.354,0-0.647-0.128-0.879-0.384C286.139,775.125,286.024,774.76,286.024,774.286z
				 M280.923,770.477c0,0.703,0.109,1.301,0.328,1.795c0.219,0.494,0.518,0.866,0.897,1.115c0.38,0.251,0.795,0.377,1.244,0.377
				c0.456,0,0.872-0.119,1.25-0.357c0.376-0.236,0.677-0.602,0.902-1.091c0.225-0.491,0.337-1.105,0.337-1.839
				c0-0.691-0.112-1.284-0.337-1.782c-0.225-0.496-0.528-0.876-0.912-1.14c-0.383-0.262-0.803-0.393-1.258-0.393
				c-0.475,0-0.899,0.135-1.273,0.403c-0.374,0.269-0.663,0.654-0.869,1.158C281.026,769.228,280.923,769.812,280.923,770.477z"/>
			<path style="fill:#FFFFFF;" d="M297.458,771.133h-5.071c0.006,0.588,0.124,1.107,0.356,1.557c0.23,0.45,0.538,0.789,0.921,1.017
				c0.383,0.228,0.806,0.341,1.268,0.341c0.31,0,0.593-0.035,0.85-0.107c0.257-0.074,0.505-0.187,0.746-0.343
				c0.241-0.154,0.462-0.321,0.664-0.499c0.202-0.178,0.464-0.419,0.788-0.723c0.133-0.113,0.323-0.171,0.571-0.171
				c0.266,0,0.48,0.074,0.645,0.22c0.165,0.146,0.248,0.351,0.248,0.617c0,0.234-0.093,0.507-0.275,0.821
				c-0.185,0.313-0.462,0.614-0.832,0.902c-0.371,0.288-0.835,0.526-1.397,0.717c-0.56,0.19-1.204,0.285-1.933,0.285
				c-1.664,0-2.96-0.476-3.884-1.425s-1.386-2.238-1.386-3.865c0-0.767,0.113-1.478,0.341-2.132
				c0.228-0.656,0.561-1.218,0.997-1.687c0.437-0.469,0.975-0.827,1.615-1.078c0.639-0.25,1.349-0.374,2.127-0.374
				c1.013,0,1.882,0.212,2.606,0.641c0.726,0.427,1.27,0.979,1.63,1.656c0.36,0.678,0.542,1.369,0.542,2.07
				c0,0.653-0.187,1.075-0.56,1.269C298.662,771.036,298.136,771.133,297.458,771.133z M292.386,769.661h4.702
				c-0.063-0.887-0.303-1.551-0.717-1.99c-0.415-0.44-0.96-0.66-1.638-0.66c-0.646,0-1.177,0.223-1.591,0.669
				C292.727,768.125,292.476,768.787,292.386,769.661z"/>
			<path style="fill:#FFFFFF;" d="M309.273,772.375c0,0.716-0.173,1.329-0.523,1.839c-0.348,0.51-0.862,0.896-1.543,1.159
				c-0.68,0.263-1.508,0.393-2.483,0.393c-0.931,0-1.728-0.143-2.394-0.428c-0.665-0.284-1.156-0.642-1.472-1.067
				c-0.317-0.429-0.475-0.857-0.475-1.288c0-0.285,0.101-0.528,0.304-0.731c0.202-0.202,0.459-0.304,0.77-0.304
				c0.272,0,0.48,0.066,0.626,0.199c0.146,0.133,0.286,0.32,0.417,0.56c0.266,0.464,0.585,0.807,0.956,1.036
				c0.37,0.227,0.875,0.342,1.515,0.342c0.519,0,0.945-0.116,1.277-0.347c0.332-0.233,0.498-0.496,0.498-0.794
				c0-0.456-0.172-0.787-0.518-0.996c-0.345-0.209-0.914-0.409-1.705-0.6c-0.893-0.221-1.619-0.454-2.18-0.698
				c-0.561-0.242-1.008-0.565-1.344-0.963c-0.335-0.399-0.503-0.891-0.503-1.473c0-0.518,0.155-1.01,0.465-1.473
				c0.311-0.461,0.768-0.83,1.374-1.106c0.603-0.276,1.333-0.414,2.188-0.414c0.671,0,1.275,0.069,1.809,0.21
				c0.536,0.138,0.983,0.326,1.34,0.561c0.358,0.233,0.63,0.493,0.816,0.777c0.187,0.285,0.28,0.564,0.28,0.837
				c0,0.297-0.1,0.541-0.298,0.732c-0.199,0.188-0.482,0.285-0.85,0.285c-0.266,0-0.492-0.076-0.679-0.229
				c-0.187-0.151-0.4-0.379-0.641-0.683c-0.196-0.253-0.426-0.456-0.693-0.608c-0.266-0.152-0.627-0.227-1.083-0.227
				c-0.469,0-0.857,0.099-1.168,0.3c-0.31,0.198-0.465,0.446-0.465,0.744c0,0.273,0.114,0.496,0.341,0.67
				c0.229,0.175,0.535,0.319,0.922,0.433c0.386,0.113,0.917,0.252,1.596,0.417c0.803,0.197,1.46,0.432,1.97,0.703
				c0.509,0.271,0.895,0.594,1.16,0.965C309.142,771.479,309.273,771.901,309.273,772.375z"/>
			<path style="fill:#FFFFFF;" d="M311.922,764.019c-0.361,0-0.669-0.111-0.926-0.333c-0.256-0.221-0.385-0.534-0.385-0.94
				c0-0.368,0.131-0.669,0.394-0.907s0.569-0.356,0.917-0.356c0.336,0,0.633,0.107,0.893,0.323c0.26,0.216,0.39,0.528,0.39,0.94
				c0,0.399-0.127,0.711-0.381,0.936C312.57,763.906,312.27,764.019,311.922,764.019z M313.204,766.697v7.493
				c0,0.519-0.124,0.913-0.371,1.179c-0.247,0.266-0.56,0.398-0.94,0.398s-0.689-0.136-0.926-0.408
				c-0.238-0.273-0.356-0.662-0.356-1.169v-7.418c0-0.512,0.118-0.898,0.356-1.158c0.237-0.26,0.546-0.39,0.926-0.39
				s0.693,0.13,0.94,0.39C313.081,765.874,313.204,766.235,313.204,766.697z"/>
			<path style="fill:#FFFFFF;" d="M324.563,767.125v7.531c0,0.861-0.093,1.603-0.277,2.224c-0.182,0.619-0.477,1.133-0.883,1.538
				c-0.405,0.404-0.936,0.706-1.59,0.901c-0.655,0.197-1.471,0.295-2.446,0.295c-0.893,0-1.69-0.125-2.393-0.375
				c-0.702-0.251-1.243-0.573-1.624-0.969c-0.379-0.395-0.57-0.803-0.57-1.221c0-0.316,0.108-0.575,0.324-0.773
				c0.215-0.2,0.475-0.3,0.778-0.3c0.38,0,0.712,0.168,0.997,0.503c0.139,0.171,0.283,0.345,0.432,0.519
				c0.149,0.175,0.314,0.323,0.494,0.447c0.181,0.122,0.398,0.214,0.65,0.275c0.253,0.059,0.545,0.09,0.874,0.09
				c0.671,0,1.192-0.093,1.563-0.28c0.371-0.187,0.63-0.448,0.779-0.784c0.149-0.334,0.236-0.693,0.261-1.077
				c0.025-0.384,0.044-0.999,0.057-1.849c-0.399,0.559-0.859,0.983-1.382,1.274c-0.522,0.291-1.145,0.437-1.866,0.437
				c-0.868,0-1.625-0.222-2.275-0.665c-0.648-0.443-1.147-1.064-1.495-1.861c-0.349-0.799-0.522-1.719-0.522-2.764
				c0-0.778,0.105-1.483,0.317-2.108c0.213-0.628,0.515-1.156,0.907-1.587c0.393-0.431,0.845-0.755,1.358-0.974
				c0.513-0.218,1.076-0.327,1.691-0.327c0.734,0,1.371,0.142,1.909,0.422c0.538,0.283,1.039,0.725,1.501,1.326v-0.353
				c0-0.449,0.11-0.797,0.332-1.045c0.222-0.246,0.507-0.37,0.855-0.37c0.5,0,0.832,0.164,0.997,0.489
				C324.48,766.04,324.563,766.51,324.563,767.125z M317.05,770.411c0,1.051,0.229,1.846,0.688,2.384
				c0.459,0.539,1.053,0.808,1.781,0.808c0.43,0,0.837-0.116,1.22-0.347c0.384-0.232,0.695-0.58,0.937-1.045
				c0.24-0.466,0.361-1.03,0.361-1.695c0-1.057-0.232-1.881-0.698-2.469c-0.466-0.589-1.078-0.884-1.838-0.884
				c-0.741,0-1.334,0.282-1.78,0.846C317.273,768.571,317.05,769.373,317.05,770.411z"/>
			<path style="fill:#FFFFFF;" d="M328.684,766.659v0.313c0.455-0.602,0.954-1.043,1.496-1.325c0.542-0.281,1.163-0.423,1.866-0.423
				c0.684,0,1.295,0.15,1.833,0.447c0.538,0.298,0.941,0.719,1.206,1.262c0.172,0.317,0.282,0.66,0.333,1.026
				c0.051,0.368,0.077,0.836,0.077,1.406v4.824c0,0.519-0.119,0.913-0.357,1.179c-0.237,0.266-0.546,0.398-0.926,0.398
				c-0.387,0-0.7-0.136-0.941-0.408c-0.241-0.273-0.361-0.662-0.361-1.169v-4.321c0-0.855-0.119-1.509-0.357-1.961
				c-0.238-0.452-0.71-0.68-1.42-0.68c-0.461,0-0.883,0.138-1.263,0.413c-0.38,0.276-0.659,0.655-0.836,1.136
				c-0.126,0.387-0.19,1.107-0.19,2.165v3.248c0,0.525-0.123,0.921-0.365,1.184c-0.244,0.263-0.559,0.393-0.945,0.393
				c-0.374,0-0.681-0.136-0.922-0.408c-0.24-0.273-0.361-0.662-0.361-1.169v-7.493c0-0.494,0.107-0.863,0.323-1.107
				c0.215-0.243,0.51-0.365,0.883-0.365c0.229,0,0.435,0.054,0.619,0.162c0.183,0.108,0.331,0.269,0.441,0.483
				C328.629,766.086,328.684,766.349,328.684,766.659z"/>
			<path style="fill:#FFFFFF;" d="M344.458,771.133h-5.071c0.007,0.588,0.125,1.107,0.356,1.557c0.231,0.45,0.538,0.789,0.921,1.017
				c0.382,0.228,0.805,0.341,1.267,0.341c0.311,0,0.594-0.035,0.851-0.107c0.255-0.074,0.504-0.187,0.746-0.343
				c0.24-0.154,0.461-0.321,0.665-0.499c0.202-0.178,0.464-0.419,0.788-0.723c0.133-0.113,0.323-0.171,0.57-0.171
				c0.266,0,0.482,0.074,0.646,0.22c0.165,0.146,0.247,0.351,0.247,0.617c0,0.234-0.091,0.507-0.275,0.821
				c-0.184,0.313-0.461,0.614-0.831,0.902c-0.371,0.288-0.835,0.526-1.396,0.717c-0.561,0.19-1.205,0.285-1.933,0.285
				c-1.665,0-2.96-0.476-3.885-1.425c-0.923-0.949-1.386-2.238-1.386-3.865c0-0.767,0.114-1.478,0.342-2.132
				c0.228-0.656,0.561-1.218,0.998-1.687c0.436-0.469,0.975-0.827,1.614-1.078c0.639-0.25,1.349-0.374,2.128-0.374
				c1.013,0,1.881,0.212,2.606,0.641c0.726,0.427,1.269,0.979,1.63,1.656c0.36,0.678,0.542,1.369,0.542,2.07
				c0,0.653-0.186,1.075-0.56,1.269C345.662,771.036,345.136,771.133,344.458,771.133z M339.387,769.661h4.701
				c-0.063-0.887-0.302-1.551-0.717-1.99c-0.415-0.44-0.961-0.66-1.638-0.66c-0.646,0-1.177,0.223-1.592,0.669
				C339.726,768.125,339.476,768.787,339.387,769.661z"/>
			<path style="fill:#FFFFFF;" d="M355.028,774.286v-0.257c-0.348,0.398-0.691,0.724-1.03,0.973
				c-0.339,0.251-0.706,0.441-1.102,0.57c-0.395,0.132-0.828,0.195-1.296,0.195c-0.622,0-1.196-0.131-1.724-0.393
				c-0.529-0.263-0.986-0.639-1.373-1.126c-0.387-0.487-0.679-1.06-0.878-1.719c-0.2-0.659-0.299-1.371-0.299-2.137
				c0-1.621,0.395-2.886,1.187-3.791c0.792-0.904,1.833-1.357,3.125-1.357c0.747,0,1.378,0.129,1.89,0.384
				c0.513,0.257,1.013,0.652,1.5,1.183v-3.827c0-0.532,0.106-0.934,0.319-1.206c0.211-0.273,0.515-0.408,0.907-0.408
				c0.392,0,0.694,0.125,0.907,0.375c0.212,0.251,0.318,0.618,0.318,1.106v11.436c0,0.494-0.114,0.864-0.342,1.111
				c-0.228,0.246-0.522,0.37-0.883,0.37c-0.354,0-0.647-0.128-0.879-0.384C355.144,775.125,355.028,774.76,355.028,774.286z
				 M349.928,770.477c0,0.703,0.108,1.301,0.327,1.795c0.218,0.494,0.518,0.866,0.898,1.115c0.379,0.251,0.794,0.377,1.243,0.377
				c0.457,0,0.873-0.119,1.249-0.357c0.377-0.236,0.678-0.602,0.902-1.091c0.225-0.491,0.337-1.105,0.337-1.839
				c0-0.691-0.112-1.284-0.337-1.782c-0.224-0.496-0.528-0.876-0.912-1.14c-0.384-0.262-0.803-0.393-1.259-0.393
				c-0.474,0-0.899,0.135-1.272,0.403c-0.373,0.269-0.663,0.654-0.869,1.158C350.03,769.228,349.928,769.812,349.928,770.477z"/>
			<path style="fill:#FFFFFF;" d="M365.626,762.85v3.96c0.487-0.506,0.984-0.895,1.491-1.163c0.506-0.269,1.134-0.403,1.881-0.403
				c0.861,0,1.616,0.204,2.266,0.611c0.648,0.41,1.151,1.002,1.51,1.777c0.357,0.775,0.537,1.695,0.537,2.76
				c0,0.785-0.1,1.504-0.299,2.16c-0.2,0.655-0.49,1.224-0.869,1.704c-0.38,0.481-0.841,0.854-1.382,1.117
				c-0.542,0.263-1.139,0.393-1.79,0.393c-0.4,0-0.775-0.047-1.126-0.143c-0.352-0.095-0.651-0.219-0.898-0.375
				c-0.246-0.154-0.457-0.314-0.631-0.48c-0.174-0.164-0.404-0.412-0.689-0.741v0.257c0,0.487-0.117,0.856-0.352,1.107
				c-0.233,0.25-0.531,0.374-0.893,0.374c-0.367,0-0.66-0.124-0.878-0.374c-0.219-0.251-0.328-0.62-0.328-1.107v-11.322
				c0-0.525,0.106-0.923,0.317-1.191c0.212-0.269,0.509-0.403,0.889-0.403c0.399,0,0.706,0.128,0.921,0.384
				C365.518,762.01,365.626,762.375,365.626,762.85z M365.75,770.553c0,1.032,0.236,1.824,0.708,2.378
				c0.472,0.555,1.091,0.833,1.857,0.833c0.652,0,1.214-0.283,1.686-0.851c0.472-0.567,0.708-1.379,0.708-2.436
				c0-0.684-0.097-1.273-0.294-1.767c-0.197-0.494-0.475-0.876-0.835-1.145c-0.361-0.268-0.783-0.403-1.264-0.403
				c-0.494,0-0.935,0.135-1.32,0.403c-0.386,0.269-0.69,0.658-0.912,1.168C365.861,769.243,365.75,769.85,365.75,770.553z"/>
			<path style="fill:#FFFFFF;" d="M376.672,776.09l0.237-0.58l-3.191-8.035c-0.196-0.461-0.295-0.798-0.295-1.007
				c0-0.222,0.058-0.427,0.171-0.616c0.114-0.191,0.271-0.343,0.47-0.456c0.2-0.115,0.407-0.172,0.623-0.172
				c0.373,0,0.655,0.119,0.846,0.357c0.19,0.237,0.357,0.577,0.503,1.021l2.194,6.383l2.08-5.937
				c0.164-0.479,0.313-0.857,0.446-1.13c0.133-0.273,0.273-0.456,0.422-0.55c0.148-0.096,0.359-0.144,0.632-0.144
				c0.197,0,0.385,0.052,0.565,0.157c0.18,0.104,0.319,0.245,0.417,0.423c0.098,0.177,0.148,0.363,0.148,0.56
				c-0.026,0.12-0.066,0.291-0.124,0.514c-0.058,0.221-0.126,0.447-0.208,0.674l-3.381,8.853c-0.292,0.778-0.577,1.389-0.855,1.832
				c-0.279,0.443-0.647,0.785-1.106,1.021c-0.46,0.238-1.078,0.357-1.857,0.357c-0.759,0-1.33-0.082-1.708-0.246
				c-0.381-0.166-0.57-0.467-0.57-0.903c0-0.297,0.089-0.527,0.271-0.689c0.18-0.161,0.448-0.243,0.801-0.243
				c0.14,0,0.276,0.02,0.409,0.059c0.164,0.037,0.307,0.057,0.427,0.057c0.297,0,0.532-0.044,0.704-0.134
				c0.17-0.088,0.324-0.241,0.46-0.461C376.337,776.836,376.495,776.514,376.672,776.09z"/>
		</g>
		<g>
			<path style="fill:#FFFFFF;" d="M414.235,765.449h0.618v-0.778c0-0.814,0.1-1.457,0.307-1.938
				c0.204-0.479,0.556-0.826,1.047-1.045c0.49-0.217,1.163-0.326,2.017-0.326c1.52,0,2.273,0.367,2.273,1.114
				c0,0.238-0.079,0.444-0.24,0.615c-0.154,0.169-0.343,0.256-0.558,0.256c-0.1,0-0.278-0.019-0.527-0.06
				c-0.237-0.033-0.452-0.056-0.623-0.056c-0.468,0-0.767,0.141-0.905,0.415c-0.127,0.275-0.195,0.669-0.195,1.185v0.617h0.633
				c0.991,0,1.481,0.297,1.481,0.896c0,0.419-0.127,0.69-0.393,0.805c-0.262,0.114-0.624,0.171-1.089,0.171h-0.633v6.871
				c0,0.511-0.12,0.9-0.369,1.168c-0.241,0.273-0.554,0.406-0.942,0.406c-0.367,0-0.671-0.134-0.918-0.406
				c-0.244-0.268-0.364-0.657-0.364-1.168v-6.871h-0.714c-0.389,0-0.683-0.084-0.893-0.262c-0.209-0.171-0.315-0.399-0.315-0.678
				C412.931,765.756,413.366,765.449,414.235,765.449"/>
			<path style="fill:#FFFFFF;" d="M422.724,772.023v2.168c0,0.524-0.133,0.919-0.374,1.18c-0.247,0.266-0.559,0.395-0.938,0.395
				c-0.382,0-0.688-0.131-0.927-0.4c-0.236-0.264-0.36-0.656-0.36-1.174v-7.223c0-1.166,0.42-1.749,1.261-1.749
				c0.434,0,0.743,0.135,0.934,0.408c0.19,0.273,0.295,0.674,0.317,1.208c0.308-0.534,0.624-0.935,0.948-1.208
				c0.332-0.273,0.763-0.408,1.31-0.408c0.549,0,1.072,0.135,1.585,0.408c0.516,0.273,0.771,0.637,0.771,1.085
				c0,0.315-0.11,0.58-0.326,0.781c-0.22,0.209-0.454,0.311-0.706,0.311c-0.1,0-0.331-0.063-0.692-0.18
				c-0.365-0.113-0.688-0.173-0.963-0.173c-0.38,0-0.692,0.102-0.932,0.298c-0.242,0.205-0.431,0.497-0.564,0.887
				c-0.129,0.395-0.219,0.865-0.272,1.404C422.747,770.583,422.724,771.245,422.724,772.023"/>
			<path style="fill:#FFFFFF;" d="M434.645,771.13h-5.074c0.009,0.588,0.124,1.11,0.354,1.559c0.235,0.446,0.54,0.786,0.925,1.017
				c0.385,0.228,0.804,0.34,1.268,0.34c0.311,0,0.593-0.033,0.85-0.111c0.254-0.069,0.505-0.185,0.745-0.341
				c0.242-0.152,0.46-0.318,0.664-0.5c0.202-0.175,0.467-0.416,0.79-0.719c0.135-0.113,0.324-0.174,0.568-0.174
				c0.269,0,0.481,0.074,0.649,0.222c0.166,0.147,0.243,0.351,0.243,0.617c0,0.235-0.089,0.508-0.268,0.819
				c-0.188,0.317-0.463,0.616-0.836,0.906c-0.374,0.285-0.839,0.527-1.398,0.714c-0.559,0.19-1.206,0.286-1.932,0.286
				c-1.671,0-2.964-0.473-3.887-1.422c-0.924-0.952-1.392-2.242-1.392-3.868c0-0.767,0.117-1.479,0.348-2.135
				c0.225-0.658,0.558-1.216,0.999-1.688c0.436-0.471,0.97-0.828,1.612-1.078c0.638-0.249,1.347-0.374,2.128-0.374
				c1.011,0,1.881,0.214,2.606,0.646c0.724,0.423,1.273,0.977,1.629,1.654c0.361,0.681,0.542,1.368,0.542,2.074
				c0,0.648-0.189,1.07-0.562,1.266C435.847,771.034,435.323,771.13,434.645,771.13 M429.571,769.656h4.701
				c-0.063-0.885-0.298-1.55-0.714-1.986c-0.418-0.442-0.959-0.66-1.641-0.66c-0.645,0-1.177,0.22-1.592,0.669
				C429.912,768.125,429.658,768.783,429.571,769.656"/>
			<path style="fill:#FFFFFF;" d="M445.432,771.13h-5.073c0.006,0.588,0.125,1.11,0.355,1.559c0.231,0.446,0.539,0.786,0.921,1.017
				c0.383,0.228,0.806,0.34,1.271,0.34c0.308,0,0.593-0.033,0.845-0.111c0.259-0.069,0.506-0.185,0.75-0.341
				c0.242-0.152,0.46-0.318,0.664-0.5c0.199-0.175,0.464-0.416,0.788-0.719c0.135-0.113,0.326-0.174,0.568-0.174
				c0.268,0,0.483,0.074,0.65,0.222c0.165,0.147,0.24,0.351,0.24,0.617c0,0.235-0.087,0.508-0.273,0.819
				c-0.177,0.317-0.455,0.616-0.83,0.906c-0.37,0.285-0.84,0.527-1.396,0.714c-0.558,0.19-1.208,0.286-1.935,0.286
				c-1.667,0-2.959-0.473-3.887-1.422c-0.924-0.952-1.389-2.242-1.389-3.868c0-0.767,0.116-1.479,0.348-2.135
				c0.227-0.658,0.559-1.216,0.996-1.688c0.436-0.471,0.973-0.828,1.614-1.078c0.638-0.249,1.351-0.374,2.129-0.374
				c1.009,0,1.878,0.214,2.613,0.646c0.72,0.423,1.266,0.977,1.621,1.654c0.359,0.681,0.545,1.368,0.545,2.074
				c0,0.648-0.191,1.07-0.561,1.266C446.632,771.034,446.108,771.13,445.432,771.13 M440.359,769.656h4.701
				c-0.063-0.885-0.304-1.55-0.715-1.986c-0.421-0.442-0.962-0.66-1.643-0.66c-0.646,0-1.176,0.22-1.593,0.669
				C440.697,768.125,440.443,768.783,440.359,769.656"/>
			<path style="fill:#FFFFFF;" d="M451.112,766.678v0.311c0.486-0.601,0.994-1.042,1.524-1.324c0.519-0.284,1.118-0.427,1.782-0.427
				c0.795,0,1.535,0.208,2.207,0.617c0.671,0.414,1.198,1.016,1.589,1.807c0.39,0.795,0.586,1.73,0.586,2.814
				c0,0.796-0.112,1.531-0.336,2.201c-0.224,0.668-0.537,1.227-0.929,1.68c-0.394,0.45-0.855,0.802-1.39,1.046
				c-0.542,0.241-1.111,0.363-1.728,0.363c-0.738,0-1.364-0.148-1.865-0.447c-0.503-0.292-0.982-0.733-1.441-1.306v3.893
				c0,1.136-0.416,1.71-1.244,1.71c-0.49,0-0.809-0.147-0.972-0.44c-0.151-0.299-0.233-0.724-0.233-1.291v-11.193
				c0-0.495,0.106-0.859,0.32-1.107c0.215-0.239,0.512-0.364,0.885-0.364c0.369,0,0.666,0.125,0.895,0.374
				C450.999,765.847,451.112,766.204,451.112,766.678 M456.196,770.446c0-0.685-0.107-1.273-0.315-1.763
				c-0.209-0.492-0.499-0.867-0.866-1.128c-0.367-0.263-0.782-0.396-1.232-0.396c-0.714,0-1.318,0.284-1.809,0.844
				c-0.492,0.566-0.739,1.396-0.739,2.493c0,1.026,0.244,1.833,0.735,2.406c0.487,0.573,1.086,0.858,1.813,0.858
				c0.429,0,0.83-0.126,1.197-0.372c0.371-0.253,0.665-0.627,0.884-1.127C456.085,771.759,456.196,771.154,456.196,770.446"/>
			<path style="fill:#FFFFFF;" d="M461.412,764.012c-0.362,0-0.669-0.114-0.923-0.335c-0.26-0.223-0.388-0.532-0.388-0.937
				c0-0.368,0.131-0.67,0.396-0.91c0.262-0.234,0.566-0.355,0.914-0.355c0.34,0,0.636,0.107,0.894,0.319
				c0.26,0.219,0.391,0.534,0.391,0.946c0,0.4-0.127,0.711-0.378,0.936C462.064,763.898,461.763,764.012,461.412,764.012
				 M462.696,766.691v7.502c0,0.516-0.124,0.908-0.37,1.172c-0.25,0.269-0.561,0.4-0.941,0.4c-0.381,0-0.685-0.134-0.928-0.406
				c-0.233-0.276-0.355-0.665-0.355-1.166v-7.428c0-0.51,0.122-0.895,0.355-1.154c0.243-0.265,0.547-0.392,0.928-0.392
				c0.381,0,0.691,0.127,0.941,0.392C462.572,765.871,462.696,766.233,462.696,766.691"/>
			<path style="fill:#FFFFFF;" d="M471.055,774.582l-2.284-3.766l-1.408,1.328v2.065c0,0.499-0.133,0.882-0.396,1.149
				c-0.257,0.273-0.566,0.406-0.906,0.406c-0.398,0-0.715-0.131-0.94-0.4c-0.227-0.264-0.344-0.656-0.344-1.174v-11.063
				c0-0.573,0.114-1.011,0.331-1.314c0.223-0.305,0.545-0.452,0.953-0.452c0.4,0,0.713,0.137,0.949,0.411
				c0.234,0.27,0.353,0.674,0.353,1.202v6.293l2.916-3.063c0.362-0.376,0.633-0.641,0.827-0.778
				c0.189-0.139,0.419-0.208,0.689-0.208c0.326,0,0.594,0.104,0.815,0.309c0.211,0.206,0.32,0.466,0.32,0.773
				c0,0.379-0.353,0.889-1.055,1.522l-1.377,1.263l2.659,4.183c0.193,0.314,0.339,0.544,0.424,0.706
				c0.084,0.159,0.13,0.319,0.13,0.462c0,0.413-0.114,0.734-0.341,0.975c-0.225,0.236-0.524,0.354-0.886,0.354
				c-0.316,0-0.564-0.081-0.733-0.256C471.582,775.336,471.345,775.026,471.055,774.582"/>
			<path style="fill:#FFFFFF;" d="M476.691,775.765c-0.392,0-0.728-0.126-1.014-0.381c-0.284-0.249-0.429-0.605-0.429-1.065
				c0-0.386,0.138-0.719,0.41-0.995c0.274-0.279,0.607-0.419,1.008-0.419c0.397,0,0.735,0.14,1.022,0.412
				c0.279,0.275,0.422,0.612,0.422,1.002c0,0.452-0.143,0.808-0.422,1.06C477.402,775.639,477.07,775.765,476.691,775.765"/>
			<path style="fill:#FFFFFF;" d="M489.589,772.555c0,0.32-0.097,0.668-0.291,1.034c-0.191,0.37-0.488,0.718-0.886,1.05
				c-0.395,0.332-0.892,0.603-1.495,0.804c-0.601,0.202-1.28,0.307-2.03,0.307c-1.607,0-2.858-0.47-3.758-1.401
				c-0.896-0.936-1.346-2.19-1.346-3.76c0-1.067,0.204-2.006,0.619-2.824c0.407-0.814,1.004-1.447,1.781-1.894
				c0.779-0.448,1.716-0.67,2.794-0.67c0.674,0,1.288,0.098,1.853,0.295c0.561,0.195,1.032,0.451,1.425,0.759
				c0.387,0.315,0.685,0.644,0.89,0.992c0.207,0.352,0.308,0.681,0.308,0.987c0,0.308-0.113,0.571-0.343,0.787
				c-0.235,0.215-0.516,0.324-0.839,0.324c-0.219,0-0.397-0.057-0.541-0.166c-0.144-0.112-0.305-0.29-0.479-0.542
				c-0.317-0.479-0.646-0.842-0.996-1.079c-0.343-0.243-0.78-0.362-1.314-0.362c-0.762,0-1.384,0.298-1.854,0.897
				c-0.468,0.596-0.703,1.42-0.703,2.454c0,0.488,0.063,0.939,0.183,1.348c0.117,0.407,0.291,0.756,0.52,1.044
				c0.23,0.287,0.504,0.505,0.826,0.654c0.324,0.153,0.681,0.226,1.064,0.226c0.521,0,0.967-0.12,1.337-0.36
				c0.376-0.241,0.702-0.607,0.986-1.103c0.158-0.291,0.327-0.518,0.509-0.684c0.183-0.163,0.409-0.249,0.676-0.249
				c0.316,0,0.58,0.123,0.786,0.362C489.483,772.026,489.589,772.285,489.589,772.555"/>
			<path style="fill:#FFFFFF;" d="M500.78,770.495c0,0.769-0.122,1.484-0.355,2.139c-0.247,0.652-0.592,1.213-1.05,1.679
				c-0.455,0.469-1.002,0.828-1.632,1.08c-0.64,0.247-1.35,0.375-2.139,0.375c-0.785,0-1.493-0.128-2.121-0.383
				c-0.623-0.249-1.171-0.614-1.626-1.082c-0.461-0.477-0.809-1.034-1.052-1.677c-0.23-0.643-0.351-1.354-0.351-2.131
				c0-0.786,0.124-1.506,0.358-2.158c0.242-0.654,0.589-1.212,1.039-1.673c0.451-0.462,0.993-0.817,1.631-1.07
				c0.644-0.249,1.35-0.374,2.121-0.374c0.784,0,1.498,0.125,2.139,0.382c0.638,0.251,1.183,0.614,1.643,1.079
				c0.458,0.475,0.803,1.029,1.04,1.672C500.66,769.003,500.78,769.712,500.78,770.495 M498.176,770.495
				c0-1.059-0.234-1.881-0.698-2.469c-0.463-0.596-1.09-0.888-1.874-0.888c-0.508,0-0.955,0.132-1.343,0.394
				c-0.387,0.262-0.681,0.649-0.89,1.164c-0.209,0.514-0.316,1.113-0.316,1.799c0,0.679,0.103,1.268,0.31,1.773
				c0.208,0.511,0.502,0.897,0.886,1.166c0.386,0.267,0.835,0.404,1.353,0.404c0.784,0,1.411-0.296,1.874-0.892
				C497.942,772.356,498.176,771.536,498.176,770.495"/>
			<path style="fill:#FFFFFF;" d="M510.671,770.685v3.446c0,0.547-0.12,0.951-0.369,1.227c-0.25,0.273-0.571,0.408-0.977,0.408
				c-0.393,0-0.714-0.136-0.951-0.408c-0.247-0.276-0.372-0.681-0.372-1.227V770c0-0.653-0.021-1.162-0.063-1.524
				c-0.046-0.354-0.168-0.655-0.362-0.883c-0.196-0.235-0.509-0.352-0.931-0.352c-0.851,0-1.407,0.29-1.677,0.881
				c-0.268,0.576-0.406,1.413-0.406,2.507v3.502c0,0.538-0.122,0.946-0.361,1.224c-0.249,0.273-0.567,0.412-0.965,0.412
				c-0.395,0-0.717-0.139-0.967-0.412c-0.252-0.277-0.376-0.685-0.376-1.224v-7.419c0-0.489,0.111-0.86,0.335-1.111
				c0.229-0.257,0.526-0.382,0.89-0.382c0.356,0,0.651,0.123,0.892,0.355c0.236,0.238,0.354,0.566,0.354,0.984v0.245
				c0.453-0.535,0.935-0.932,1.444-1.181c0.517-0.26,1.082-0.386,1.713-0.386c0.651,0,1.211,0.131,1.678,0.39
				c0.47,0.261,0.853,0.655,1.16,1.177c0.439-0.528,0.909-0.923,1.41-1.181c0.5-0.257,1.053-0.386,1.662-0.386
				c0.706,0,1.321,0.143,1.834,0.419c0.51,0.278,0.893,0.68,1.148,1.195c0.221,0.473,0.33,1.21,0.33,2.217v5.063
				c0,0.547-0.122,0.951-0.367,1.227c-0.246,0.273-0.575,0.408-0.979,0.408c-0.395,0-0.714-0.139-0.965-0.412
				c-0.25-0.277-0.376-0.685-0.376-1.224v-4.361c0-0.559-0.023-1.003-0.069-1.338c-0.047-0.337-0.177-0.62-0.383-0.847
				c-0.212-0.228-0.53-0.344-0.953-0.344c-0.342,0-0.666,0.107-0.974,0.308c-0.307,0.198-0.547,0.477-0.721,0.813
				C510.77,768.8,510.671,769.575,510.671,770.685"/>
		</g>
		<g>
			<path style="fill:#FFFFFF;" d="M389.967,769.867c-0.002-0.005-0.002-0.01-0.002-0.018
				C389.965,769.857,389.965,769.862,389.967,769.867z"/>
			<path style="fill:#FFFFFF;" d="M390.098,770.696c0.002,0,0.002,0,0.003,0c-0.05-0.236-0.088-0.471-0.119-0.702
				C390.012,770.227,390.051,770.462,390.098,770.696z"/>
			<path style="fill:#FFFFFF;" d="M390.956,773.102c-0.006-0.01-0.011-0.022-0.017-0.033
				C390.945,773.081,390.95,773.092,390.956,773.102z"/>
			<path style="fill:#FFFFFF;" d="M390.874,772.942c-0.022-0.044-0.044-0.09-0.065-0.134
				C390.83,772.855,390.852,772.898,390.874,772.942z"/>
			<path style="fill:#FFFFFF;" d="M390.339,771.623c0.127,0.4,0.28,0.788,0.457,1.158c-0.18-0.378-0.33-0.767-0.454-1.158
				C390.341,771.623,390.34,771.623,390.339,771.623z"/>
			<path style="fill:#FFFFFF;" d="M400.004,759.93c0.501,0,0.871,0.04,1.295,0.111l0.12-0.763c0,0-1.171-0.36-2.71-0.234
				l-0.121-0.415c0.479-0.101,0.838-0.526,0.838-1.034c0-0.582-0.474-1.054-1.057-1.054c-0.583,0-1.056,0.472-1.056,1.054
				c0,0.508,0.358,0.934,0.836,1.034l0.134,0.463c-1.634,0.225-2.935,0.862-2.935,0.862l0.23,0.705
				c0.989-0.329,1.846-0.529,2.624-0.613C398.964,759.965,399.537,759.93,400.004,759.93z"/>
			<path style="fill:#FFFFFF;" d="M390.936,763.789l0.006-0.008c0.039-0.05,0.076-0.097,0.113-0.143l-0.313-0.226l-0.488-0.356
				c-0.027,0.038-0.795,0.744-1.401,2.048c-0.025-0.041-0.056-0.081-0.09-0.119c-0.182-0.198-0.436-0.3-0.758-0.294
				c-0.004,0-0.009,0-0.015,0c-0.2,0-0.337-0.066-0.427-0.147c0.089-0.113,0.143-0.256,0.143-0.413c0-0.368-0.3-0.669-0.669-0.669
				c-0.369,0-0.668,0.301-0.668,0.669c0,0.37,0.3,0.669,0.668,0.669c0.058,0,0.113-0.01,0.167-0.021
				c0.165,0.183,0.425,0.342,0.808,0.334c0.197-0.002,0.341,0.049,0.438,0.155c0.111,0.121,0.148,0.296,0.16,0.428
				c-0.001,0.002-0.001,0.005-0.003,0.005c-0.435,1.19-0.311,2.67-0.311,2.67l1.057,0.042c0.021-0.539,0.099-1.482,0.372-2.23
				C390.25,764.733,390.91,763.827,390.936,763.789z"/>
			<path style="fill:#FFFFFF;" d="M409.204,760.814c-0.368,0-0.669,0.299-0.669,0.669c0,0.058,0.009,0.112,0.023,0.165
				c-0.184,0.166-0.343,0.428-0.337,0.81c0.003,0.197-0.048,0.34-0.154,0.436c-0.085,0.075-0.191,0.115-0.296,0.141
				c-0.787-1.103-1.756-1.775-1.756-1.775l-0.759,0.813c0.573,0.521,1.159,1.175,1.729,1.99c0.394,0.564,0.799,1.29,1.136,2.015
				l1.024-0.486c0,0-0.468-1.155-1.126-2.191c0.114-0.04,0.23-0.102,0.331-0.192c0.2-0.181,0.299-0.437,0.293-0.758
				c-0.002-0.208,0.066-0.349,0.148-0.441c0.114,0.087,0.257,0.143,0.412,0.143c0.371,0,0.67-0.3,0.67-0.669
				C409.874,761.113,409.575,760.814,409.204,760.814z"/>
			<path style="fill:#FFFFFF;" d="M406.546,770.016c-1.409,0.687-3.728,1.594-6.781,2.02c-1.198,0.166-2.359,0.227-3.428,0.227
				c-1.391,0-2.62-0.104-3.563-0.223c-1.076-0.136-1.917-0.302-2.432-0.418c0.124,0.392,0.273,0.78,0.454,1.158
				c0.003,0.01,0.008,0.021,0.013,0.027c0.022,0.044,0.043,0.09,0.065,0.134c0.022,0.044,0.043,0.087,0.065,0.127
				c0.006,0.012,0.011,0.023,0.017,0.033c0.303,0.57,0.667,1.095,1.081,1.549c1.44,1.575,2.907,1.824,2.921,1.826l0.023,0.003
				l0.021,0.008c0.013,0.005,1.314,0.425,3.292,0.425c1.945,0,3.854-0.393,5.674-1.167c1.348-0.689,2.622-1.736,3.254-2.67
				c0.488-0.723,0.841-1.493,1.05-2.294c0.111-0.426,0.199-1.107,0.147-1.825C408.022,769.223,407.395,769.603,406.546,770.016z"/>
			<path style="fill:#FFFFFF;" d="M391.389,764.123c-0.041,0.06-0.652,0.925-1.135,2.253c-0.362,0.995-0.346,2.443-0.346,2.46v0.003
				c0,0.34,0.019,0.677,0.057,1.011c0,0.008,0,0.013,0.002,0.018c0.004,0.043,0.011,0.084,0.015,0.127
				c0.03,0.231,0.069,0.466,0.119,0.702c0.7,0.178,4.878,1.152,9.548,0.502c2.927-0.407,5.149-1.273,6.499-1.927
				c1.121-0.544,1.842-1.036,2.12-1.238c-0.277-1.028-1.042-2.641-1.743-3.646c-2.005-2.865-4.167-3.601-5.277-3.783
				c-0.424-0.069-0.763-0.109-1.243-0.109c-0.447,0-1.002,0.036-1.743,0.114c-0.743,0.077-1.572,0.272-2.532,0.596
				c-1.348,0.451-2.567,1.159-3.527,2.048l-0.033,0.03C392.027,763.413,391.73,763.688,391.389,764.123z M403.659,763.456
				c0.961,0,1.743,0.781,1.743,1.743c0,0.962-0.782,1.744-1.743,1.744c-0.962,0-1.742-0.782-1.742-1.744
				C401.917,764.237,402.697,763.456,403.659,763.456z M395.417,763.386c1.557,0,2.817,1.262,2.817,2.817
				c0,1.556-1.26,2.814-2.817,2.814c-1.555,0-2.816-1.259-2.816-2.814C392.601,764.648,393.862,763.386,395.417,763.386z"/>
		</g>
	</g>
</g>
</svg>
