<?xml version="1.0" encoding="iso-8859-1"?>
<!-- Generator: Adobe Illustrator 21.1.0, SVG Export Plug-In . SVG Version: 6.00 Build 0)  -->
<svg version="1.1" id="Layer_1" xmlns="http://www.w3.org/2000/svg" xmlns:xlink="http://www.w3.org/1999/xlink" x="0px" y="0px"
	 viewBox="0 0 1400 980" style="enable-background:new 0 0 1400 980;" xml:space="preserve">
<rect style="fill:#C2DDEF;" width="1400" height="980"/>
<g>
	<rect y="761" style="fill:#8FC46C;" width="1400" height="219"/>
	<g>
		<path style="fill:none;" d="M116,633L116,633c1.958,0,3.889,0.114,5.791,0.319C119.889,633.114,117.959,633,116,633z"/>
		<path style="fill:#A7D887;" d="M294.762,667.94c4.815-10.203,7.552-22.026,7.552-34.393c0-40.259-28.913-72.985-64.578-72.985
			c-21.534,0-40.593,11.863-52.326,30.152c-3.968-0.862-7.852-1.352-12.042-1.352c-35.652,0-64.367,32.602-64.367,72.839v-0.005
			c-32,4.794-56.096,35.285-56.096,72.215c0,11.164,2.125,21.735,6.099,31.193c-30.226,8.463-52.206,33.986-52.206,63.712
			c0,5.997,0.857,11.908,2.529,17.683h328.918C336.993,774.826,320.454,712.144,294.762,667.94z"/>
	</g>
	<g>
		<path style="fill:none;" d="M1283.041,633L1283.041,633c-1.959,0-3.889,0.114-5.791,0.319
			C1279.152,633.114,1281.082,633,1283.041,633z"/>
		<path style="fill:#A7D887;" d="M1060.797,847h328.918c1.672-5.774,2.529-11.685,2.529-17.683
			c0-29.726-21.979-55.249-52.206-63.712c3.974-9.458,6.078-20.029,6.078-31.193c0-36.93-24.116-67.421-56.116-72.215v0.005
			c0-40.237-28.694-72.839-64.347-72.839c-4.191,0-8.063,0.489-12.032,1.352c-11.732-18.289-30.787-30.152-52.321-30.152
			c-35.665,0-64.576,32.727-64.576,72.985c0,12.366,2.74,24.189,7.555,34.393C1078.586,712.144,1062.048,774.826,1060.797,847z"/>
	</g>
</g>
<g>
	<g>
		<g>
			<path style="fill:#F9538F;" d="M815,488.484C815,501.968,836.621,513,863.5,513c26.877,0,50.5-11.032,50.5-24.516V413h-99
				V488.484z"/>
			<path style="fill:#FFFFFF;" d="M718,413v75.484c0,0.988,0.29,1.96,0.061,2.917C720.94,503.523,741.623,513,766.352,513
				c26.68,0,48.648-11.032,48.648-24.516V413H718z"/>
			<path style="fill:#F9538F;" d="M718,413h-97v75.484c0,0.987,0.28,1.959,0.053,2.917c2.9,12.121,23.804,21.599,48.713,21.599
				c24.911,0,45.651-9.477,48.552-21.598c-0.229-0.958-0.318-1.93-0.318-2.917V413z"/>
			<path style="fill:#FF5E8A;" d="M718,413L718,413v75.484c0,0.988-0.228,1.96-0.002,2.917c0.229-0.958,0.002-1.93,0.002-2.917V413z
				"/>
			<path style="fill:#FFFFFF;" d="M621,413h-95v75.484C526,501.968,547.231,513,573.912,513c24.727,0,44.923-9.478,47.799-21.599
				c-0.229-0.957-0.711-1.93-0.711-2.917V413z"/>
			<path style="fill:#FFFFFF;" d="M621,413.185L621,413.185v75.3c0,0.987-0.229,1.959,0,2.917c0.229-0.957,0-1.93,0-2.917V413.185z"
				/>
			<path style="fill:#F9538F;" d="M428,413v75.484c0,0.987-0.239,1.959-0.465,2.917C430.434,503.522,451.677,513,476.587,513
				C503.464,513,526,501.968,526,488.484V413H428z"/>
			<path style="fill:#FFFFFF;" d="M428,413h-97v75.484C331,501.968,352.71,513,379.392,513c24.727,0,45.682-9.478,48.56-21.599
				c-0.229-0.957,0.048-1.93,0.048-2.917V413z"/>
			<path style="fill:#FFFFFF;" d="M428,413L428,413v75.484c0,0.987-0.227,1.959,0.001,2.917c0.228-0.957-0.001-1.93-0.001-2.917V413
				z"/>
			<path style="fill:#F9538F;" d="M233,413v75.484C233,501.968,255.122,513,281.998,513C308.879,513,331,501.968,331,488.484V413
				H233z"/>
			<path style="fill:#FFFFFF;" d="M135,413v75.484C135,501.968,157.819,513,184.5,513s48.5-11.032,48.5-24.516V413H135z"/>
			<path style="fill:#FFFFFF;" d="M1107,413v75.484c0,13.483,22.82,24.516,49.502,24.516c26.678,0,50.498-11.032,50.498-24.516V413
				H1107z"/>
			<path style="fill:#F9538F;" d="M1011,413v75.484c0,13.483,21.123,24.516,48,24.516s48-11.032,48-24.516V413H1011z"/>
			<path style="fill:#FFFFFF;" d="M914,413v75.484C914,501.968,935.819,513,962.5,513c26.679,0,48.5-11.032,48.5-24.516V413H914z"/>
		</g>
		<g>
			<polygon style="fill:#FFFFFF;" points="1207,413 135,413 227,337 1115,337 			"/>
			<polygon style="fill:#F9538F;" points="1059,337 963,337 1011,413 1107,413 			"/>
			<polygon style="fill:#F9538F;" points="282,337 378,337 331,413 233,413 			"/>
			<polygon style="fill:#F9538F;" points="462,337 558,337 526,413 428,413 			"/>
			<polygon style="fill:#F9538F;" points="879,337 783,337 815,413 914,413 			"/>
			<polygon style="fill:#F9538F;" points="718,413 621,413 622,337 718,337 			"/>
		</g>
		<polygon style="opacity:0.2;fill:#FFFFFF;" points="1115,337 1059,337 963,337 879,337 783,337 718,337 622,337 558,337 462,337 
			378,337 282,337 227,337 135,413 233,413 331,413 428,413 526,413 621,413 718,413 815,413 914,413 1011,413 1107,413 1207,413 		
			"/>
	</g>
</g>
</svg>
