<?xml version="1.0" encoding="iso-8859-1"?>
<!-- Generator: Adobe Illustrator 21.1.0, SVG Export Plug-In . SVG Version: 6.00 Build 0)  -->
<svg version="1.1" id="&#x5716;&#x5C64;_1" xmlns="http://www.w3.org/2000/svg" xmlns:xlink="http://www.w3.org/1999/xlink" x="0px"
	 y="0px" viewBox="0 0 1773.177 210.021" style="enable-background:new 0 0 1773.177 210.021;" xml:space="preserve">
<g>
	<g>
		<path style="fill:#E85387;" d="M1013.296,171.137c0,13.483,21.621,24.516,48.5,24.516c26.877,0,50.5-11.032,50.5-24.516V95.653
			h-99V171.137z"/>
		<path style="fill:#FFFFFF;" d="M916.296,95.653v75.484c0,0.988,0.29,1.96,0.062,2.917c2.879,12.121,23.561,21.598,48.29,21.598
			c26.68,0,48.648-11.032,48.648-24.516V95.653H916.296z"/>
		<path style="fill:#E85387;" d="M916.296,95.653h-97v75.484c0,0.987,0.28,1.959,0.053,2.917
			c2.9,12.121,23.804,21.599,48.713,21.599c24.911,0,45.651-9.477,48.552-21.598c-0.229-0.958-0.318-1.93-0.318-2.917V95.653z"/>
		<path style="fill:#EA5D84;" d="M916.296,95.653L916.296,95.653v75.484c0,0.988-0.227,1.96-0.002,2.917
			c0.229-0.958,0.002-1.93,0.002-2.917V95.653z"/>
		<path style="fill:#FFFFFF;" d="M819.296,95.653h-95v75.484c0,13.483,21.231,24.516,47.912,24.516
			c24.727,0,44.923-9.478,47.799-21.599c-0.229-0.957-0.711-1.93-0.711-2.917V95.653z"/>
		<path style="fill:#FFFFFF;" d="M819.296,95.837L819.296,95.837v75.3c0,0.987-0.229,1.959,0,2.917c0.229-0.957,0-1.93,0-2.917
			V95.837z"/>
		<path style="fill:#E85387;" d="M626.296,95.653v75.484c0,0.987-0.239,1.959-0.465,2.917c2.899,12.121,24.142,21.599,49.052,21.599
			c26.877,0,49.413-11.032,49.413-24.516V95.653H626.296z"/>
		<path style="fill:#FFFFFF;" d="M626.296,95.653h-97v75.484c0,13.483,21.71,24.516,48.392,24.516
			c24.727,0,45.682-9.478,48.56-21.599c-0.229-0.957,0.048-1.93,0.048-2.917V95.653z"/>
		<path style="fill:#FFFFFF;" d="M626.296,95.653L626.296,95.653v75.484c0,0.987-0.227,1.959,0.002,2.917
			c0.228-0.957-0.002-1.93-0.002-2.917V95.653z"/>
		<path style="fill:#E85387;" d="M431.296,95.653v75.484c0,13.483,22.122,24.516,48.998,24.516
			c26.881,0,49.002-11.032,49.002-24.516V95.653H431.296z"/>
		<path style="fill:#FFFFFF;" d="M333.296,95.653v75.484c0,13.483,22.819,24.516,49.5,24.516s48.5-11.032,48.5-24.516V95.653
			H333.296z"/>
		<path style="fill:#E85387;" d="M235.296,95.152v75.484c0,13.483,22.122,24.516,48.998,24.516
			c26.881,0,49.002-11.032,49.002-24.516V95.152H235.296z"/>
		<path style="fill:#E85387;" d="M45.372,95.653v75.484c0,13.483,22.574,24.516,49.998,24.516c27.429,0,50.002-11.032,50.002-24.516
			V95.653H45.372z"/>
		<path style="fill:#FFFFFF;" d="M142.5,95.152v76.239c0,13.618,21.608,24.761,46.872,24.761s45.925-11.143,45.925-24.761V95.152
			H142.5z"/>
		<path style="fill:#FFFFFF;" d="M1305.296,95.653v75.484c0,13.483,22.82,24.516,49.502,24.516
			c26.678,0,50.498-11.032,50.498-24.516V95.653H1305.296z"/>
		<path style="fill:#E85387;" d="M1209.296,95.653v75.484c0,13.483,21.123,24.516,48,24.516c26.877,0,48-11.032,48-24.516V95.653
			H1209.296z"/>
		<path style="fill:#FFFFFF;" d="M1500.296,94.653v75.484c0,13.483,23.1,24.516,50.108,24.516c27.005,0,51.117-11.032,51.117-24.516
			V94.653H1500.296z"/>
		<path style="fill:#E85387;" d="M1404.296,94.653v75.484c0,13.483,21.123,24.516,48,24.516c26.877,0,48-11.032,48-24.516V94.653
			H1404.296z"/>
		<path style="fill:#E85387;" d="M1601.521,95.653v75.484c0,13.483,21.123,24.516,48,24.516s48-11.032,48-24.516V95.653H1601.521z"
			/>
		<path style="fill:#FFFFFF;" d="M1112.296,95.653v75.484c0,13.483,21.819,24.516,48.5,24.516c26.679,0,48.5-11.032,48.5-24.516
			V95.653H1112.296z"/>
	</g>
	<g>
		<polygon style="fill:#FFFFFF;" points="1623.25,95.653 47.372,95.653 182.616,19.653 1488.007,19.653 		"/>
		<polygon style="fill:#E85387;" points="1257.296,19.653 1161.296,19.653 1209.296,95.653 1305.296,95.653 		"/>
		<polygon style="fill:#E85387;" points="1423.25,19.653 1338.75,19.653 1404.296,95.653 1500.296,95.653 		"/>
		<polygon style="fill:#E85387;" points="1537.75,19.653 1483,19.653 1601.521,95.653 1697.521,95.653 		"/>
		<polygon style="fill:#E85387;" points="480.296,19.653 576.296,19.653 529.296,95.653 431.296,95.653 		"/>
		<polygon style="fill:#E85387;" points="310.25,19.653 393.583,19.653 333.296,95.653 235.296,95.653 		"/>
		<polygon style="fill:#E85387;" points="150.583,19.653 203.66,19.653 143.372,95.653 45.372,95.653 		"/>
		<polygon style="fill:#E85387;" points="660.296,19.653 756.296,19.653 724.296,95.653 626.296,95.653 		"/>
		<polygon style="fill:#E85387;" points="1077.296,19.653 981.296,19.653 1013.296,95.653 1112.296,95.653 		"/>
		<polygon style="fill:#E85387;" points="916.296,95.653 819.296,95.653 820.296,19.653 916.296,19.653 		"/>
	</g>
	<polygon style="opacity:0.2;fill:#FFFFFF;" points="1537.75,19.653 1466.534,19.653 1318.393,19.653 1188.769,19.653 
		1040.628,19.653 940.324,19.653 792.182,19.653 693.422,19.653 545.28,19.653 415.657,19.653 267.515,19.653 147.98,19.653 
		40.674,99.01 191.902,99.01 343.129,99.01 492.814,99.01 644.041,99.01 790.639,99.01 940.324,99.01 1090.008,99.01 
		1242.779,99.01 1392.463,99.01 1540.604,99.01 1697.521,95.653 	"/>
</g>
</svg>
