<?xml version="1.0" encoding="iso-8859-1"?>
<!-- Generator: Adobe Illustrator 21.1.0, SVG Export Plug-In . SVG Version: 6.00 Build 0)  -->
<svg version="1.1" id="&#x5716;&#x5C64;_1" xmlns="http://www.w3.org/2000/svg" xmlns:xlink="http://www.w3.org/1999/xlink" x="0px"
	 y="0px" viewBox="0 0 258.683 131.138" style="enable-background:new 0 0 258.683 131.138;" xml:space="preserve">
<g>
	<path style="display:none;fill:#4C819C;" d="M243.551,83.194c-2.508-19.358-19.046-34.315-39.087-34.315
		c-0.125,0-0.248,0.008-0.372,0.009c-10.089-21.274-31.756-35.99-56.867-35.99c-21.031,0-39.637,10.329-51.06,26.181
		c-2.553-0.453-5.176-0.703-7.86-0.703c-19.045,0-35.297,11.921-41.727,28.704c-1.407-0.22-2.849-0.337-4.318-0.337
		c-15.306,0-27.713,12.408-27.713,27.713c0,15.306,12.408,27.713,27.713,27.713c6.228,0,11.975-2.055,16.602-5.522
		c7.863,6.898,18.161,11.088,29.443,11.088c6.518,0,12.703-1.407,18.286-3.916c10.963,9.288,25.139,14.9,40.633,14.9
		c15.404,0,29.508-5.545,40.445-14.737c5.096,2.403,10.786,3.753,16.794,3.753c7.837,0,15.134-2.296,21.272-6.238
		c4.004,3.818,9.412,6.177,15.382,6.177c12.321,0,22.309-9.988,22.309-22.309C263.427,93.866,254.727,84.407,243.551,83.194z"/>
	<path style="fill:#FFFFFF;" d="M233.609,72.237c-2.508-19.358-19.046-34.316-39.087-34.316c-0.125,0-0.248,0.008-0.372,0.009
		c-10.089-21.274-31.756-35.99-56.867-35.99c-21.031,0-39.637,10.33-51.06,26.181c-2.553-0.453-5.176-0.703-7.86-0.703
		c-19.045,0-35.297,11.921-41.727,28.704c-1.407-0.22-2.849-0.337-4.318-0.337c-15.306,0-27.713,12.408-27.713,27.713
		c0,15.306,12.408,27.713,27.713,27.713c6.228,0,11.975-2.055,16.602-5.522c7.863,6.898,18.161,11.088,29.443,11.088
		c6.518,0,12.703-1.407,18.286-3.916c10.963,9.288,25.139,14.9,40.633,14.9c15.404,0,29.508-5.545,40.445-14.737
		c5.096,2.403,10.786,3.752,16.794,3.752c7.837,0,15.134-2.296,21.272-6.238c4.004,3.818,9.413,6.177,15.382,6.177
		c12.321,0,22.309-9.988,22.309-22.309C253.485,82.91,244.785,73.451,233.609,72.237z"/>
</g>
</svg>
